MetropolisNew-Regular.ufo
<glyph name="dollar" format="2">
  <advance width="650"/>
  <unicode hex="0024"/>
  <anchor x="329" y="0" name="bottom"/>
  <anchor x="328" y="687" name="top"/>
  <outline>
    <contour>
      <point x="372" y="-74" type="line"/>
      <point x="372" y="759" type="line"/>
      <point x="294" y="759" type="line"/>
      <point x="294" y="-74" type="line"/>
    </contour>
    <contour>
      <point x="338" y="-11" type="curve" smooth="yes"/>
      <point x="498" y="-11"/>
      <point x="580" y="78"/>
      <point x="580" y="187" type="curve" smooth="yes"/>
      <point x="580" y="308"/>
      <point x="486" y="355"/>
      <point x="355" y="386" type="curve" smooth="yes"/>
      <point x="238" y="414"/>
      <point x="170" y="439"/>
      <point x="170" y="510" type="curve" smooth="yes"/>
      <point x="170" y="573"/>
      <point x="232" y="629"/>
      <point x="317" y="629" type="curve" smooth="yes"/>
      <point x="389" y="629"/>
      <point x="457" y="596"/>
      <point x="514" y="541" type="curve"/>
      <point x="562" y="602" type="line"/>
      <point x="499" y="660"/>
      <point x="423" y="700"/>
      <point x="321" y="700" type="curve" smooth="yes"/>
      <point x="189" y="700"/>
      <point x="91" y="614"/>
      <point x="91" y="504" type="curve" smooth="yes"/>
      <point x="91" y="385"/>
      <point x="178" y="342"/>
      <point x="316" y="310" type="curve" smooth="yes"/>
      <point x="436" y="282"/>
      <point x="501" y="253"/>
      <point x="501" y="180" type="curve" smooth="yes"/>
      <point x="501" y="118"/>
      <point x="447" y="60"/>
      <point x="341" y="60" type="curve" smooth="yes"/>
      <point x="245" y="60"/>
      <point x="174" y="101"/>
      <point x="116" y="159" type="curve"/>
      <point x="67" y="98" type="line"/>
      <point x="136" y="30"/>
      <point x="225" y="-11"/>
    </contour>
  </outline>
</glyph>
<glyph name="quotesingle" format="2">
  <advance width="220"/>
  <unicode hex="0027"/>
  <outline>
    <contour>
      <point x="132" y="429" type="line"/>
      <point x="140" y="487"/>
      <point x="156" y="579"/>
      <point x="156" y="629" type="curve" smooth="yes"/>
      <point x="156" y="654"/>
      <point x="135" y="675"/>
      <point x="110" y="675" type="curve" smooth="yes"/>
      <point x="85" y="675"/>
      <point x="64" y="654"/>
      <point x="64" y="629" type="curve" smooth="yes"/>
      <point x="64" y="579"/>
      <point x="80" y="487"/>
      <point x="88" y="429" type="curve"/>
    </contour>
  </outline>
</glyph>
<glyph name="comma" format="2">
  <advance width="230"/>
  <unicode hex="002C"/>
  <outline>
    <contour>
      <point x="96" y="-133" type="line"/>
      <point x="156" y="-58"/>
      <point x="173" y="-24"/>
      <point x="173" y="16" type="curve" smooth="yes"/>
      <point x="173" y="62"/>
      <point x="150" y="96"/>
      <point x="112" y="96" type="curve" smooth="yes"/>
      <point x="80" y="96"/>
      <point x="57" y="71"/>
      <point x="57" y="43" type="curve" smooth="yes"/>
      <point x="57" y="13"/>
      <point x="81" y="-12"/>
      <point x="111" y="-12" type="curve"/>
      <point x="103" y="-43"/>
      <point x="86" y="-74"/>
      <point x="59" y="-105" type="curve"/>
    </contour>
  </outline>
</glyph>
<glyph name="colon" format="2">
  <advance width="220"/>
  <unicode hex="003A"/>
  <outline>
    <contour>
      <point x="111" y="403" type="curve" smooth="yes"/>
      <point x="140" y="403"/>
      <point x="164" y="428"/>
      <point x="164" y="458" type="curve" smooth="yes"/>
      <point x="164" y="486"/>
      <point x="140" y="511"/>
      <point x="111" y="511" type="curve" smooth="yes"/>
      <point x="80" y="511"/>
      <point x="56" y="486"/>
      <point x="56" y="458" type="curve" smooth="yes"/>
      <point x="56" y="428"/>
      <point x="80" y="403"/>
    </contour>
    <contour>
      <point x="111" y="-12" type="curve" smooth="yes"/>
      <point x="140" y="-12"/>
      <point x="164" y="13"/>
      <point x="164" y="43" type="curve" smooth="yes"/>
      <point x="164" y="71"/>
      <point x="140" y="96"/>
      <point x="111" y="96" type="curve" smooth="yes"/>
      <point x="80" y="96"/>
      <point x="56" y="71"/>
      <point x="56" y="43" type="curve" smooth="yes"/>
      <point x="56" y="13"/>
      <point x="80" y="-12"/>
    </contour>
  </outline>
</glyph>
<glyph name="A" format="2">
  <advance width="785"/>
  <unicode hex="0041"/>
  <anchor x="738" y="0" name="bottom"/>
  <anchor x="393" y="687" name="top"/>
  <outline>
    <contour>
      <point x="350" y="687" type="line"/>
      <point x="653" y="0" type="line"/>
      <point x="738" y="0" type="line"/>
      <point x="435" y="687" type="line"/>
    </contour>
    <contour>
      <point x="180" y="156" type="line"/>
      <point x="599" y="156" type="line"/>
      <point x="599" y="230" type="line"/>
      <point x="180" y="230" type="line"/>
    </contour>
    <contour>
      <point x="47" y="0" type="line"/>
      <point x="132" y="0" type="line"/>
      <point x="435" y="687" type="line"/>
      <point x="350" y="687" type="line"/>
    </contour>
  </outline>
  <guideline angle="90" x="393" y="0"/>
</glyph>
<glyph name="B" format="2">
  <advance width="661"/>
  <unicode hex="0042"/>
  <outline>
    <contour>
      <point x="405" y="0" type="line" smooth="yes"/>
      <point x="524" y="0"/>
      <point x="609" y="78"/>
      <point x="609" y="188" type="curve" smooth="yes"/>
      <point x="609" y="263"/>
      <point x="563" y="325"/>
      <point x="484" y="365" type="curve"/>
      <point x="546" y="401"/>
      <point x="582" y="443"/>
      <point x="582" y="516" type="curve" smooth="yes"/>
      <point x="582" y="616"/>
      <point x="504" y="687"/>
      <point x="393" y="687" type="curve" smooth="yes"/>
      <point x="78" y="687" type="line"/>
      <point x="78" y="0" type="line"/>
    </contour>
    <contour>
      <point x="156" y="325" type="line"/>
      <point x="385" y="325" type="line" smooth="yes"/>
      <point x="470" y="325"/>
      <point x="530" y="272"/>
      <point x="530" y="198" type="curve" smooth="yes"/>
      <point x="530" y="124"/>
      <point x="470" y="71"/>
      <point x="385" y="71" type="curve" smooth="yes"/>
      <point x="156" y="71" type="line"/>
    </contour>
    <contour>
      <point x="156" y="616" type="line"/>
      <point x="373" y="616" type="line" smooth="yes"/>
      <point x="449" y="616"/>
      <point x="503" y="570"/>
      <point x="503" y="506" type="curve" smooth="yes"/>
      <point x="503" y="442"/>
      <point x="449" y="396"/>
      <point x="373" y="396" type="curve" smooth="yes"/>
      <point x="156" y="396" type="line"/>
    </contour>
  </outline>
</glyph>
<glyph name="Q" format="2">
  <advance width="812"/>
  <unicode hex="0051"/>
  <anchor x="406" y="687" name="top"/>
  <outline>
    <contour>
      <point x="753" y="58" type="line"/>
      <point x="509" y="270" type="line"/>
      <point x="459" y="212" type="line"/>
      <point x="703" y="0" type="line"/>
    </contour>
    <contour>
      <point x="406" y="-12" type="curve" smooth="yes"/>
      <point x="597" y="-12"/>
      <point x="757" y="151"/>
      <point x="757" y="344" type="curve" smooth="yes"/>
      <point x="757" y="537"/>
      <point x="597" y="699"/>
      <point x="406" y="699" type="curve" smooth="yes"/>
      <point x="216" y="699"/>
      <point x="54" y="537"/>
      <point x="54" y="344" type="curve" smooth="yes"/>
      <point x="54" y="151"/>
      <point x="216" y="-12"/>
    </contour>
    <contour>
      <point x="406" y="60" type="curve" smooth="yes"/>
      <point x="258" y="60"/>
      <point x="133" y="190"/>
      <point x="133" y="344" type="curve" smooth="yes"/>
      <point x="133" y="497"/>
      <point x="258" y="627"/>
      <point x="406" y="627" type="curve" smooth="yes"/>
      <point x="554" y="627"/>
      <point x="678" y="497"/>
      <point x="678" y="344" type="curve" smooth="yes"/>
      <point x="678" y="190"/>
      <point x="554" y="60"/>
    </contour>
  </outline>
</glyph>
<glyph name="R" format="2">
  <advance width="650"/>
  <unicode hex="0052"/>
  <outline>
    <contour>
      <point x="79" y="0" type="line"/>
      <point x="157" y="0" type="line"/>
      <point x="157" y="247" type="line"/>
      <point x="339" y="247" type="line"/>
      <point x="513" y="0" type="line"/>
      <point x="602" y="0" type="line"/>
      <point x="424" y="254" type="line"/>
      <point x="529" y="277"/>
      <point x="611" y="355"/>
      <point x="611" y="467" type="curve" smooth="yes"/>
      <point x="611" y="608"/>
      <point x="489" y="687"/>
      <point x="358" y="687" type="curve" smooth="yes"/>
      <point x="79" y="687" type="line"/>
    </contour>
    <contour>
      <point x="157" y="321" type="line"/>
      <point x="157" y="613" type="line"/>
      <point x="344" y="613" type="line" smooth="yes"/>
      <point x="437" y="613"/>
      <point x="532" y="574"/>
      <point x="532" y="467" type="curve" smooth="yes"/>
      <point x="532" y="360"/>
      <point x="437" y="321"/>
      <point x="344" y="321" type="curve" smooth="yes"/>
    </contour>
  </outline>
</glyph>
<glyph name="T" format="2">
  <advance width="638"/>
  <unicode hex="0054"/>
  <anchor x="319" y="0" name="bottom"/>
  <anchor x="319" y="687" name="top"/>
  <outline>
    <contour>
      <point x="358" y="0" type="line"/>
      <point x="358" y="613" type="line"/>
      <point x="589" y="613" type="line"/>
      <point x="589" y="687" type="line"/>
      <point x="49" y="687" type="line"/>
      <point x="49" y="613" type="line"/>
      <point x="280" y="613" type="line"/>
      <point x="280" y="0" type="line"/>
    </contour>
  </outline>
</glyph>
<glyph name="U" format="2">
  <advance width="710"/>
  <unicode hex="0055"/>
  <anchor x="355" y="-12" name="bottom"/>
  <anchor x="355" y="687" name="top"/>
  <outline>
    <contour>
      <point x="355" y="-12" type="curve" smooth="yes"/>
      <point x="523" y="-12"/>
      <point x="642" y="111"/>
      <point x="642" y="285" type="curve" smooth="yes"/>
      <point x="642" y="687" type="line"/>
      <point x="564" y="687" type="line"/>
      <point x="564" y="285" type="line" smooth="yes"/>
      <point x="564" y="153"/>
      <point x="477" y="59"/>
      <point x="355" y="59" type="curve" smooth="yes"/>
      <point x="233" y="59"/>
      <point x="146" y="153"/>
      <point x="146" y="285" type="curve" smooth="yes"/>
      <point x="146" y="687" type="line"/>
      <point x="68" y="687" type="line"/>
      <point x="68" y="285" type="line" smooth="yes"/>
      <point x="68" y="111"/>
      <point x="187" y="-12"/>
    </contour>
  </outline>
</glyph>
<glyph name="k" format="2">
  <advance width="541"/>
  <unicode hex="006B"/>
  <anchor x="246" y="0" name="bottom"/>
  <outline>
    <contour>
      <point x="134" y="0" type="line"/>
      <point x="134" y="699" type="line"/>
      <point x="59" y="699" type="line"/>
      <point x="59" y="0" type="line"/>
    </contour>
    <contour>
      <point x="123" y="126" type="line"/>
      <point x="483" y="517" type="line"/>
      <point x="387" y="517" type="line"/>
      <point x="123" y="220" type="line"/>
    </contour>
    <contour>
      <point x="218" y="241" type="line"/>
      <point x="406" y="0" type="line"/>
      <point x="500" y="0" type="line"/>
      <point x="267" y="302" type="line"/>
    </contour>
  </outline>
</glyph>
<glyph name="l" format="2">
  <advance width="193"/>
  <unicode hex="006C"/>
  <anchor x="97" y="0" name="bottom"/>
  <anchor x="97" y="699" name="top"/>
  <outline>
    <contour>
      <point x="134" y="0" type="line"/>
      <point x="134" y="699" type="line"/>
      <point x="59" y="699" type="line"/>
      <point x="59" y="0" type="line"/>
    </contour>
  </outline>
</glyph>
<glyph name="n" format="2">
  <advance width="546"/>
  <unicode hex="006E"/>
  <anchor x="276" y="0" name="bottom"/>
  <anchor x="276" y="517" name="top"/>
  <outline>
    <contour>
      <point x="496" y="0" type="line"/>
      <point x="496" y="329" type="line" smooth="yes"/>
      <point x="496" y="448"/>
      <point x="417" y="529"/>
      <point x="302" y="529" type="curve" smooth="yes"/>
      <point x="205" y="529"/>
      <point x="121" y="462"/>
      <point x="116" y="379" type="curve"/>
      <point x="132" y="329" type="line"/>
      <point x="132" y="402"/>
      <point x="204" y="462"/>
      <point x="292" y="462" type="curve" smooth="yes"/>
      <point x="368" y="462"/>
      <point x="421" y="404"/>
      <point x="421" y="319" type="curve" smooth="yes"/>
      <point x="421" y="0" type="line"/>
    </contour>
    <contour>
      <point x="132" y="0" type="line"/>
      <point x="132" y="517" type="line"/>
      <point x="57" y="517" type="line"/>
      <point x="57" y="0" type="line"/>
    </contour>
  </outline>
</glyph>
<glyph name="v" format="2">
  <advance width="565"/>
  <unicode hex="0076"/>
  <outline>
    <contour>
      <point x="320" y="0" type="line"/>
      <point x="537" y="517" type="line"/>
      <point x="453" y="517" type="line"/>
      <point x="284" y="88" type="line"/>
      <point x="112" y="517" type="line"/>
      <point x="28" y="517" type="line"/>
      <point x="248" y="0" type="line"/>
    </contour>
  </outline>
</glyph>
<glyph name="z" format="2">
  <advance width="479"/>
  <unicode hex="007A"/>
  <anchor x="245" y="517" name="top"/>
  <outline>
    <contour>
      <point x="443" y="0" type="line"/>
      <point x="443" y="71" type="line"/>
      <point x="135" y="71" type="line"/>
      <point x="441" y="458" type="line"/>
      <point x="441" y="517" type="line"/>
      <point x="41" y="517" type="line"/>
      <point x="41" y="446" type="line"/>
      <point x="340" y="446" type="line"/>
      <point x="35" y="59" type="line"/>
      <point x="35" y="0" type="line"/>
    </contour>
  </outline>
</glyph>
<glyph name="currency" format="2">
  <advance width="700"/>
  <unicode hex="00A4"/>
  <outline>
    <contour>
      <point x="194" y="518" type="line"/>
      <point x="77" y="635" type="line"/>
      <point x="34" y="588" type="line"/>
      <point x="150" y="471" type="line"/>
    </contour>
    <contour>
      <point x="194" y="117" type="line"/>
      <point x="150" y="164" type="line"/>
      <point x="34" y="47" type="line"/>
      <point x="77" y="0" type="line"/>
    </contour>
    <contour>
      <point x="667" y="47" type="line"/>
      <point x="550" y="164" type="line"/>
      <point x="505" y="117" type="line"/>
      <point x="623" y="0" type="line"/>
    </contour>
    <contour>
      <point x="667" y="588" type="line"/>
      <point x="623" y="635" type="line"/>
      <point x="505" y="518" type="line"/>
      <point x="550" y="471" type="line"/>
    </contour>
    <contour>
      <point x="350" y="53" type="curve" smooth="yes"/>
      <point x="502" y="53"/>
      <point x="625" y="172"/>
      <point x="625" y="318" type="curve" smooth="yes"/>
      <point x="625" y="465"/>
      <point x="502" y="585"/>
      <point x="350" y="585" type="curve" smooth="yes"/>
      <point x="200" y="585"/>
      <point x="77" y="465"/>
      <point x="77" y="318" type="curve" smooth="yes"/>
      <point x="77" y="172"/>
      <point x="200" y="53"/>
    </contour>
    <contour>
      <point x="350" y="116" type="curve" smooth="yes"/>
      <point x="234" y="116"/>
      <point x="139" y="207"/>
      <point x="139" y="318" type="curve" smooth="yes"/>
      <point x="139" y="431"/>
      <point x="234" y="523"/>
      <point x="350" y="523" type="curve" smooth="yes"/>
      <point x="467" y="523"/>
      <point x="564" y="431"/>
      <point x="564" y="318" type="curve" smooth="yes"/>
      <point x="564" y="207"/>
      <point x="467" y="116"/>
    </contour>
  </outline>
</glyph>
<glyph name="brokenbar" format="2">
  <advance width="225"/>
  <unicode hex="00A6"/>
  <outline>
    <contour>
      <point x="147" y="392" type="line"/>
      <point x="147" y="742" type="line"/>
      <point x="78" y="742" type="line"/>
      <point x="78" y="392" type="line"/>
    </contour>
    <contour>
      <point x="147" y="-194" type="line"/>
      <point x="147" y="156" type="line"/>
      <point x="78" y="156" type="line"/>
      <point x="78" y="-194" type="line"/>
    </contour>
  </outline>
</glyph>
<glyph name="section" format="2">
  <advance width="492"/>
  <unicode hex="00A7"/>
  <anchor x="232" y="0" name="bottom"/>
  <anchor x="235" y="517" name="top"/>
  <outline>
    <contour>
      <point x="357" y="182" type="line"/>
      <point x="411" y="208"/>
      <point x="432" y="248"/>
      <point x="432" y="310" type="curve" smooth="yes"/>
      <point x="432" y="408"/>
      <point x="346" y="436"/>
      <point x="263" y="462" type="curve" smooth="yes"/>
      <point x="167" y="493"/>
      <point x="129" y="507"/>
      <point x="129" y="552" type="curve" smooth="yes"/>
      <point x="129" y="602"/>
      <point x="177" y="628"/>
      <point x="235" y="628" type="curve" smooth="yes"/>
      <point x="281" y="628"/>
      <point x="332" y="612"/>
      <point x="384" y="579" type="curve"/>
      <point x="420" y="637" type="line"/>
      <point x="365" y="673"/>
      <point x="299" y="695"/>
      <point x="235" y="695" type="curve" smooth="yes"/>
      <point x="132" y="695"/>
      <point x="54" y="637"/>
      <point x="54" y="543" type="curve" smooth="yes"/>
      <point x="54" y="469"/>
      <point x="102" y="432"/>
      <point x="227" y="396" type="curve" smooth="yes"/>
      <point x="297" y="376"/>
      <point x="357" y="358"/>
      <point x="357" y="302" type="curve" smooth="yes"/>
      <point x="357" y="271"/>
      <point x="339" y="247"/>
      <point x="308" y="233" type="curve"/>
    </contour>
    <contour>
      <point x="243" y="-12" type="curve" smooth="yes"/>
      <point x="350" y="-12"/>
      <point x="432" y="49"/>
      <point x="432" y="144" type="curve" smooth="yes"/>
      <point x="432" y="242"/>
      <point x="346" y="270"/>
      <point x="263" y="296" type="curve" smooth="yes"/>
      <point x="167" y="327"/>
      <point x="129" y="341"/>
      <point x="129" y="386" type="curve" smooth="yes"/>
      <point x="129" y="409"/>
      <point x="140" y="427"/>
      <point x="157" y="440" type="curve"/>
      <point x="112" y="493" type="line"/>
      <point x="76" y="467"/>
      <point x="54" y="427"/>
      <point x="54" y="377" type="curve" smooth="yes"/>
      <point x="54" y="303"/>
      <point x="102" y="266"/>
      <point x="227" y="230" type="curve" smooth="yes"/>
      <point x="297" y="210"/>
      <point x="357" y="192"/>
      <point x="357" y="136" type="curve" smooth="yes"/>
      <point x="357" y="87"/>
      <point x="311" y="55"/>
      <point x="243" y="55" type="curve" smooth="yes"/>
      <point x="186" y="55"/>
      <point x="127" y="77"/>
      <point x="68" y="120" type="curve"/>
      <point x="29" y="65" type="line"/>
      <point x="91" y="15"/>
      <point x="171" y="-12"/>
    </contour>
  </outline>
</glyph>
<glyph name="dieresis" format="2">
  <advance width="362"/>
  <unicode hex="00A8"/>
  <anchor x="181" y="517" name="_top"/>
  <anchor x="181" y="704" name="top"/>
  <outline>
    <contour>
      <point x="85" y="597" type="curve" smooth="yes"/>
      <point x="110" y="597"/>
      <point x="131" y="618"/>
      <point x="131" y="643" type="curve" smooth="yes"/>
      <point x="131" y="667"/>
      <point x="110" y="689"/>
      <point x="85" y="689" type="curve" smooth="yes"/>
      <point x="59" y="689"/>
      <point x="39" y="667"/>
      <point x="39" y="643" type="curve" smooth="yes"/>
      <point x="39" y="618"/>
      <point x="59" y="597"/>
    </contour>
    <contour>
      <point x="277" y="597" type="curve" smooth="yes"/>
      <point x="302" y="597"/>
      <point x="323" y="618"/>
      <point x="323" y="643" type="curve" smooth="yes"/>
      <point x="323" y="667"/>
      <point x="302" y="689"/>
      <point x="277" y="689" type="curve" smooth="yes"/>
      <point x="251" y="689"/>
      <point x="231" y="667"/>
      <point x="231" y="643" type="curve" smooth="yes"/>
      <point x="231" y="618"/>
      <point x="251" y="597"/>
    </contour>
  </outline>
</glyph>
<glyph name="ordfeminine" format="2">
  <advance width="327"/>
  <unicode hex="00AA"/>
  <anchor x="299" y="377" name="bottom"/>
  <anchor x="175" y="687" name="top"/>
  <outline>
    <contour>
      <point x="299" y="377" type="line"/>
      <point x="299" y="564" type="line" smooth="yes"/>
      <point x="299" y="643"/>
      <point x="249" y="694"/>
      <point x="166" y="694" type="curve" smooth="yes"/>
      <point x="128" y="694"/>
      <point x="87" y="684"/>
      <point x="44" y="662" type="curve"/>
      <point x="69" y="612" type="line"/>
      <point x="95" y="625"/>
      <point x="123" y="636"/>
      <point x="152" y="636" type="curve" smooth="yes"/>
      <point x="210" y="636"/>
      <point x="229" y="600"/>
      <point x="229" y="564" type="curve" smooth="yes"/>
      <point x="229" y="377" type="line"/>
    </contour>
    <contour>
      <point x="131" y="370" type="curve" smooth="yes"/>
      <point x="179" y="370"/>
      <point x="234" y="398"/>
      <point x="246" y="449" type="curve"/>
      <point x="229" y="474" type="line"/>
      <point x="221" y="440"/>
      <point x="183" y="422"/>
      <point x="146" y="422" type="curve" smooth="yes"/>
      <point x="111" y="422"/>
      <point x="85" y="441"/>
      <point x="85" y="471" type="curve" smooth="yes"/>
      <point x="85" y="501"/>
      <point x="115" y="522"/>
      <point x="152" y="522" type="curve" smooth="yes"/>
      <point x="185" y="522"/>
      <point x="216" y="516"/>
      <point x="242" y="506" type="curve"/>
      <point x="253" y="545" type="line"/>
      <point x="219" y="562"/>
      <point x="178" y="572"/>
      <point x="142" y="572" type="curve" smooth="yes"/>
      <point x="72" y="572"/>
      <point x="16" y="530"/>
      <point x="16" y="469" type="curve" smooth="yes"/>
      <point x="16" y="409"/>
      <point x="65" y="370"/>
    </contour>
  </outline>
</glyph>
<glyph name="logicalnot" format="2">
  <advance width="591"/>
  <unicode hex="00AC"/>
  <outline>
    <contour>
      <point x="77" y="382" type="line"/>
      <point x="77" y="319" type="line"/>
      <point x="447" y="319" type="line"/>
      <point x="447" y="140" type="line"/>
      <point x="513" y="140" type="line"/>
      <point x="513" y="382" type="line"/>
    </contour>
  </outline>
</glyph>
<glyph name="macron" format="2">
  <advance width="404"/>
  <unicode hex="00AF"/>
  <anchor x="202" y="517" name="_top"/>
  <anchor x="202" y="704" name="top"/>
  <outline>
    <contour>
      <point x="357" y="594" type="line"/>
      <point x="357" y="649" type="line"/>
      <point x="47" y="649" type="line"/>
      <point x="47" y="594" type="line"/>
    </contour>
  </outline>
</glyph>
<glyph name="plusminus" format="2">
  <advance width="606"/>
  <unicode hex="00B1"/>
  <outline>
    <contour>
      <point x="521" y="0" type="line"/>
      <point x="521" y="62" type="line"/>
      <point x="85" y="62" type="line"/>
      <point x="85" y="0" type="line"/>
    </contour>
    <contour>
      <point x="336" y="175" type="line"/>
      <point x="336" y="595" type="line"/>
      <point x="270" y="595" type="line"/>
      <point x="270" y="175" type="line"/>
    </contour>
    <contour>
      <point x="521" y="353" type="line"/>
      <point x="521" y="416" type="line"/>
      <point x="85" y="416" type="line"/>
      <point x="85" y="353" type="line"/>
    </contour>
  </outline>
</glyph>
<glyph name="two.superior" format="2">
  <advance width="365"/>
  <unicode hex="00B2"/>
  <outline>
    <contour>
      <point x="332" y="275" type="line"/>
      <point x="332" y="340" type="line"/>
      <point x="142" y="340" type="line"/>
      <point x="231" y="414" type="line"/>
      <point x="303" y="468"/>
      <point x="328" y="512"/>
      <point x="328" y="567" type="curve" smooth="yes"/>
      <point x="328" y="642"/>
      <point x="266" y="694"/>
      <point x="184" y="694" type="curve" smooth="yes"/>
      <point x="119" y="694"/>
      <point x="69" y="666"/>
      <point x="31" y="614" type="curve"/>
      <point x="78" y="571" type="line"/>
      <point x="107" y="608"/>
      <point x="139" y="630"/>
      <point x="183" y="630" type="curve" smooth="yes"/>
      <point x="221" y="630"/>
      <point x="255" y="605"/>
      <point x="255" y="565" type="curve" smooth="yes"/>
      <point x="255" y="531"/>
      <point x="236" y="499"/>
      <point x="183" y="456" type="curve" smooth="yes"/>
      <point x="31" y="334" type="line"/>
      <point x="31" y="275" type="line"/>
    </contour>
  </outline>
</glyph>
<glyph name="three.superior" format="2">
  <advance width="367"/>
  <unicode hex="00B3"/>
  <outline>
    <contour>
      <point x="184" y="268" type="curve" smooth="yes"/>
      <point x="275" y="268"/>
      <point x="336" y="318"/>
      <point x="336" y="389" type="curve" smooth="yes"/>
      <point x="336" y="445"/>
      <point x="294" y="477"/>
      <point x="250" y="486" type="curve"/>
      <point x="293" y="500"/>
      <point x="327" y="533"/>
      <point x="327" y="582" type="curve" smooth="yes"/>
      <point x="327" y="648"/>
      <point x="269" y="694"/>
      <point x="182" y="694" type="curve" smooth="yes"/>
      <point x="113" y="694"/>
      <point x="66" y="664"/>
      <point x="32" y="622" type="curve"/>
      <point x="75" y="578" type="line"/>
      <point x="104" y="610"/>
      <point x="134" y="630"/>
      <point x="176" y="630" type="curve" smooth="yes"/>
      <point x="222" y="630"/>
      <point x="254" y="606"/>
      <point x="254" y="570" type="curve" smooth="yes"/>
      <point x="254" y="534"/>
      <point x="222" y="513"/>
      <point x="172" y="514" type="curve"/>
      <point x="127" y="514" type="line"/>
      <point x="127" y="452" type="line"/>
      <point x="172" y="452" type="line"/>
      <point x="232" y="452"/>
      <point x="263" y="432"/>
      <point x="263" y="394" type="curve" smooth="yes"/>
      <point x="263" y="358"/>
      <point x="231" y="332"/>
      <point x="181" y="332" type="curve" smooth="yes"/>
      <point x="137" y="332"/>
      <point x="97" y="352"/>
      <point x="69" y="385" type="curve"/>
      <point x="24" y="339" type="line"/>
      <point x="58" y="298"/>
      <point x="112" y="268"/>
    </contour>
  </outline>
</glyph>
<glyph name="acute" format="2">
  <advance width="260"/>
  <unicode hex="00B4"/>
  <anchor x="60" y="517" name="_top"/>
  <anchor x="60" y="704" name="top"/>
  <outline>
    <contour>
      <point x="88" y="576" type="line"/>
      <point x="230" y="702" type="line"/>
      <point x="151" y="720" type="line"/>
      <point x="30" y="576" type="line"/>
    </contour>
  </outline>
</glyph>
<glyph name="micro" format="2">
  <advance width="623"/>
  <unicode hex="00B5"/>
  <outline>
    <component base="u"/>
    <contour>
      <point x="126" y="-172" type="line"/>
      <point x="126" y="217" type="line"/>
      <point x="51" y="217" type="line"/>
      <point x="51" y="-172" type="line"/>
    </contour>
  </outline>
</glyph>
<glyph name="periodcentered" format="2">
  <advance width="221"/>
  <unicode hex="00B7"/>
  <outline>
    <contour>
      <point x="111" y="221" type="curve" smooth="yes"/>
      <point x="139" y="221"/>
      <point x="162" y="243"/>
      <point x="162" y="273" type="curve" smooth="yes"/>
      <point x="162" y="302"/>
      <point x="139" y="324"/>
      <point x="111" y="324" type="curve" smooth="yes"/>
      <point x="82" y="324"/>
      <point x="59" y="302"/>
      <point x="59" y="273" type="curve" smooth="yes"/>
      <point x="59" y="243"/>
      <point x="82" y="221"/>
    </contour>
  </outline>
</glyph>
<glyph name="one.superior" format="2">
  <advance width="245"/>
  <unicode hex="00B9"/>
  <outline>
    <contour>
      <point x="196" y="275" type="line"/>
      <point x="196" y="687" type="line"/>
      <point x="140" y="687" type="line"/>
      <point x="23" y="609" type="line"/>
      <point x="53" y="558" type="line"/>
      <point x="125" y="604" type="line"/>
      <point x="125" y="275" type="line"/>
    </contour>
  </outline>
</glyph>
<glyph name="ordmasculine" format="2">
  <advance width="366"/>
  <unicode hex="00BA"/>
  <anchor x="183" y="687" name="top"/>
  <outline>
    <contour>
      <point x="183" y="370" type="curve" smooth="yes"/>
      <point x="274" y="370"/>
      <point x="349" y="443"/>
      <point x="349" y="532" type="curve" smooth="yes"/>
      <point x="349" y="622"/>
      <point x="274" y="694"/>
      <point x="183" y="694" type="curve" smooth="yes"/>
      <point x="92" y="694"/>
      <point x="17" y="622"/>
      <point x="17" y="532" type="curve" smooth="yes"/>
      <point x="17" y="443"/>
      <point x="92" y="370"/>
    </contour>
    <contour>
      <point x="183" y="431" type="curve" smooth="yes"/>
      <point x="131" y="431"/>
      <point x="88" y="477"/>
      <point x="88" y="532" type="curve" smooth="yes"/>
      <point x="88" y="588"/>
      <point x="131" y="633"/>
      <point x="183" y="633" type="curve" smooth="yes"/>
      <point x="236" y="633"/>
      <point x="279" y="588"/>
      <point x="279" y="532" type="curve" smooth="yes"/>
      <point x="279" y="477"/>
      <point x="236" y="431"/>
    </contour>
  </outline>
</glyph>
<glyph name="Eth" format="2">
  <advance width="760"/>
  <unicode hex="00D0"/>
  <outline>
    <contour>
      <point x="334" y="0" type="line" smooth="yes"/>
      <point x="552" y="0"/>
      <point x="706" y="143"/>
      <point x="706" y="344" type="curve" smooth="yes"/>
      <point x="706" y="545"/>
      <point x="552" y="687"/>
      <point x="334" y="687" type="curve" smooth="yes"/>
      <point x="102" y="687" type="line"/>
      <point x="102" y="0" type="line"/>
    </contour>
    <contour>
      <point x="180" y="616" type="line"/>
      <point x="334" y="616" type="line" smooth="yes"/>
      <point x="506" y="616"/>
      <point x="627" y="503"/>
      <point x="627" y="344" type="curve" smooth="yes"/>
      <point x="627" y="184"/>
      <point x="506" y="71"/>
      <point x="334" y="71" type="curve" smooth="yes"/>
      <point x="180" y="71" type="line"/>
    </contour>
    <contour>
      <point x="397" y="313" type="line"/>
      <point x="398" y="387" type="line"/>
      <point x="49" y="387" type="line"/>
      <point x="49" y="313" type="line"/>
    </contour>
  </outline>
</glyph>
<glyph name="thorn" format="2">
  <advance width="597"/>
  <unicode hex="00FE"/>
  <outline>
    <contour>
      <point x="323" y="-12" type="curve" smooth="yes"/>
      <point x="459" y="-12"/>
      <point x="561" y="100"/>
      <point x="561" y="259" type="curve" smooth="yes"/>
      <point x="561" y="417"/>
      <point x="459" y="529"/>
      <point x="323" y="529" type="curve" smooth="yes"/>
      <point x="186" y="529"/>
      <point x="96" y="417"/>
      <point x="96" y="259" type="curve" smooth="yes"/>
      <point x="96" y="100"/>
      <point x="186" y="-12"/>
    </contour>
    <contour>
      <point x="309" y="55" type="curve" smooth="yes"/>
      <point x="207" y="55"/>
      <point x="135" y="140"/>
      <point x="135" y="259" type="curve" smooth="yes"/>
      <point x="135" y="378"/>
      <point x="207" y="462"/>
      <point x="309" y="462" type="curve" smooth="yes"/>
      <point x="410" y="462"/>
      <point x="482" y="378"/>
      <point x="482" y="259" type="curve" smooth="yes"/>
      <point x="482" y="140"/>
      <point x="410" y="55"/>
    </contour>
    <contour>
      <point x="135" y="-172" type="line"/>
      <point x="135" y="699" type="line"/>
      <point x="60" y="699" type="line"/>
      <point x="60" y="-172" type="line"/>
    </contour>
  </outline>
</glyph>
<glyph name="dotlessi" format="2">
  <advance width="189"/>
  <unicode hex="0131"/>
  <anchor x="132" y="0" name="bottom"/>
  <anchor x="95" y="517" name="top"/>
  <outline>
    <contour>
      <point x="132" y="0" type="line"/>
      <point x="132" y="517" type="line"/>
      <point x="57" y="517" type="line"/>
      <point x="57" y="0" type="line"/>
    </contour>
  </outline>
</glyph>
<glyph name="lcaron" format="2">
  <advance width="303"/>
  <unicode hex="013E"/>
  <anchor x="97" y="0" name="bottom"/>
  <anchor x="97" y="699" name="top"/>
  <outline>
    <contour>
      <point x="134" y="0" type="line"/>
      <point x="134" y="699" type="line"/>
      <point x="59" y="699" type="line"/>
      <point x="59" y="0" type="line"/>
    </contour>
    <contour>
      <point x="238" y="506" type="line"/>
      <point x="288" y="570"/>
      <point x="303" y="598"/>
      <point x="303" y="631" type="curve" smooth="yes"/>
      <point x="303" y="671"/>
      <point x="283" y="699"/>
      <point x="251" y="699" type="curve" smooth="yes"/>
      <point x="225" y="699"/>
      <point x="205" y="678"/>
      <point x="205" y="654" type="curve" smooth="yes"/>
      <point x="205" y="629"/>
      <point x="225" y="608"/>
      <point x="250" y="608" type="curve"/>
      <point x="244" y="581"/>
      <point x="229" y="555"/>
      <point x="206" y="529" type="curve"/>
    </contour>
  </outline>
</glyph>
<glyph name="lslash" format="2">
  <advance width="295"/>
  <unicode hex="0142"/>
  <anchor x="148" y="0" name="bottom"/>
  <anchor x="148" y="699" name="top"/>
  <outline>
    <contour>
      <point x="264" y="354" type="line"/>
      <point x="264" y="429" type="line"/>
      <point x="31" y="309" type="line"/>
      <point x="31" y="234" type="line"/>
    </contour>
    <contour>
      <point x="185" y="0" type="line"/>
      <point x="185" y="699" type="line"/>
      <point x="110" y="699" type="line"/>
      <point x="110" y="0" type="line"/>
    </contour>
  </outline>
</glyph>
<glyph name="eng" format="2">
  <advance width="546"/>
  <unicode hex="014B"/>
  <anchor x="276" y="0" name="bottom"/>
  <anchor x="459" y="517" name="top"/>
  <outline>
    <component base="n"/>
    <contour>
      <point x="370" y="-178" type="curve" smooth="yes"/>
      <point x="444" y="-178"/>
      <point x="496" y="-123"/>
      <point x="496" y="-46" type="curve" smooth="yes"/>
      <point x="496" y="117" type="line"/>
      <point x="421" y="117" type="line"/>
      <point x="421" y="-46" type="line" smooth="yes"/>
      <point x="421" y="-84"/>
      <point x="398" y="-111"/>
      <point x="365" y="-111" type="curve" smooth="yes"/>
      <point x="344" y="-111"/>
      <point x="317" y="-106"/>
      <point x="301" y="-100" type="curve"/>
      <point x="289" y="-162" type="line"/>
      <point x="309" y="-171"/>
      <point x="342" y="-178"/>
    </contour>
  </outline>
</glyph>
<glyph name="oe" format="2">
  <advance width="1022"/>
  <unicode hex="0153"/>
  <anchor x="725" y="-12" name="bottom"/>
  <anchor x="302" y="517" name="top"/>
  <outline>
    <contour>
      <point x="302" y="-12" type="curve" smooth="yes"/>
      <point x="397" y="-12"/>
      <point x="481" y="40"/>
      <point x="528" y="118" type="curve"/>
      <point x="575" y="38"/>
      <point x="660" y="-12"/>
      <point x="752" y="-12" type="curve" smooth="yes"/>
      <point x="824" y="-12"/>
      <point x="915" y="19"/>
      <point x="960" y="68" type="curve"/>
      <point x="914" y="117" type="line"/>
      <point x="882" y="82"/>
      <point x="812" y="55"/>
      <point x="751" y="55" type="curve" smooth="yes"/>
      <point x="639" y="55"/>
      <point x="567" y="144"/>
      <point x="567" y="260" type="curve" smooth="yes"/>
      <point x="567" y="380"/>
      <point x="645" y="462"/>
      <point x="748" y="462" type="curve" smooth="yes"/>
      <point x="861" y="462"/>
      <point x="917" y="374"/>
      <point x="917" y="268" type="curve"/>
      <point x="960" y="297" type="line"/>
      <point x="541" y="297" type="line"/>
      <point x="541" y="230" type="line"/>
      <point x="990" y="230" type="line"/>
      <point x="990" y="411"/>
      <point x="901" y="529"/>
      <point x="745" y="529" type="curve" smooth="yes"/>
      <point x="654" y="529"/>
      <point x="572" y="479"/>
      <point x="527" y="402" type="curve"/>
      <point x="480" y="478"/>
      <point x="397" y="529"/>
      <point x="302" y="529" type="curve" smooth="yes"/>
      <point x="155" y="529"/>
      <point x="35" y="409"/>
      <point x="35" y="260" type="curve" smooth="yes"/>
      <point x="35" y="111"/>
      <point x="155" y="-12"/>
    </contour>
    <contour>
      <point x="302" y="55" type="curve" smooth="yes"/>
      <point x="198" y="55"/>
      <point x="113" y="148"/>
      <point x="113" y="260" type="curve" smooth="yes"/>
      <point x="113" y="372"/>
      <point x="198" y="462"/>
      <point x="302" y="462" type="curve" smooth="yes"/>
      <point x="405" y="462"/>
      <point x="490" y="372"/>
      <point x="490" y="260" type="curve" smooth="yes"/>
      <point x="490" y="148"/>
      <point x="405" y="55"/>
    </contour>
  </outline>
</glyph>
<glyph name="Schwa" format="2">
  <advance width="772"/>
  <unicode hex="018F"/>
  <anchor x="397" y="703" name="bottom"/>
  <anchor x="380" y="-0" name="top"/>
  <outline>
    <contour>
      <point x="375" y="703" type="curve" smooth="yes"/>
      <point x="273" y="703"/>
      <point x="152" y="661"/>
      <point x="93" y="597" type="curve"/>
      <point x="143" y="545" type="line"/>
      <point x="192" y="598"/>
      <point x="287" y="632"/>
      <point x="375" y="632" type="curve" smooth="yes"/>
      <point x="528" y="632"/>
      <point x="641" y="503"/>
      <point x="641" y="342" type="curve" smooth="yes"/>
      <point x="641" y="176"/>
      <point x="525" y="55"/>
      <point x="377" y="55" type="curve" smooth="yes"/>
      <point x="220" y="55"/>
      <point x="130" y="174"/>
      <point x="130" y="333" type="curve"/>
      <point x="93" y="303" type="line"/>
      <point x="668" y="303" type="line"/>
      <point x="668" y="374" type="line"/>
      <point x="54" y="374" type="line"/>
      <point x="54" y="139"/>
      <point x="177" y="-16"/>
      <point x="380" y="-16" type="curve" smooth="yes"/>
      <point x="566" y="-16"/>
      <point x="718" y="139"/>
      <point x="718" y="342" type="curve" smooth="yes"/>
      <point x="718" y="547"/>
      <point x="558" y="703"/>
    </contour>
  </outline>
</glyph>
<glyph name="Ohorn" format="2">
  <advance width="807"/>
  <unicode hex="01A0"/>
  <outline>
    <contour>
      <point x="404" y="60" type="curve" smooth="yes"/>
      <point x="250" y="60"/>
      <point x="131" y="193"/>
      <point x="131" y="344" type="curve" smooth="yes"/>
      <point x="131" y="495"/>
      <point x="250" y="627"/>
      <point x="404" y="627" type="curve" smooth="yes"/>
      <point x="558" y="627"/>
      <point x="676" y="495"/>
      <point x="676" y="344" type="curve" smooth="yes"/>
      <point x="676" y="193"/>
      <point x="559" y="60"/>
    </contour>
    <contour>
      <point x="404" y="699" type="curve" smooth="yes"/>
      <point x="209" y="699"/>
      <point x="52" y="538"/>
      <point x="52" y="344" type="curve" smooth="yes"/>
      <point x="52" y="150"/>
      <point x="209" y="-12"/>
      <point x="404" y="-12" type="curve" smooth="yes"/>
      <point x="599" y="-12"/>
      <point x="755" y="150"/>
      <point x="755" y="344" type="curve" smooth="yes"/>
      <point x="755" y="459"/>
      <point x="699" y="566"/>
      <point x="606" y="633" type="curve"/>
      <point x="702" y="638"/>
      <point x="755" y="716"/>
      <point x="755" y="808" type="curve"/>
      <point x="682" y="808" type="line"/>
      <point x="682" y="748"/>
      <point x="655" y="687"/>
      <point x="587" y="687" type="curve" smooth="yes"/>
      <point x="493" y="687" type="line" smooth="yes"/>
      <point x="474" y="687"/>
      <point x="436" y="699"/>
    </contour>
  </outline>
</glyph>
<glyph name="ohorn" format="2">
  <advance width="631"/>
  <unicode hex="01A1"/>
  <outline>
    <contour>
      <point x="504" y="259" type="curve" smooth="yes"/>
      <point x="504" y="153"/>
      <point x="426" y="55"/>
      <point x="316" y="55" type="curve" smooth="yes"/>
      <point x="206" y="55"/>
      <point x="127" y="153"/>
      <point x="127" y="259" type="curve" smooth="yes"/>
      <point x="127" y="365"/>
      <point x="206" y="462"/>
      <point x="316" y="462" type="curve" smooth="yes"/>
      <point x="426" y="462"/>
      <point x="504" y="364"/>
    </contour>
    <contour>
      <point x="316" y="529" type="curve" smooth="yes"/>
      <point x="168" y="529"/>
      <point x="48" y="406"/>
      <point x="48" y="259" type="curve" smooth="yes"/>
      <point x="48" y="110"/>
      <point x="167" y="-12"/>
      <point x="316" y="-12" type="curve" smooth="yes"/>
      <point x="464" y="-12"/>
      <point x="583" y="112"/>
      <point x="583" y="259" type="curve" smooth="yes"/>
      <point x="583" y="343"/>
      <point x="549" y="413"/>
      <point x="485" y="467" type="curve"/>
      <point x="563" y="481"/>
      <point x="604" y="565"/>
      <point x="604" y="638" type="curve"/>
      <point x="531" y="638" type="line"/>
      <point x="531" y="578"/>
      <point x="504" y="517"/>
      <point x="436" y="517" type="curve" smooth="yes"/>
      <point x="393" y="517" type="line" smooth="yes"/>
      <point x="381" y="517"/>
      <point x="345" y="529"/>
    </contour>
  </outline>
</glyph>
<glyph name="Uhorn" format="2">
  <advance width="756"/>
  <unicode hex="01AF"/>
  <outline>
    <contour>
      <point x="86" y="285" type="line" smooth="yes"/>
      <point x="86" y="115"/>
      <point x="199" y="-12"/>
      <point x="373" y="-12" type="curve" smooth="yes"/>
      <point x="547" y="-12"/>
      <point x="660" y="115"/>
      <point x="660" y="285" type="curve" smooth="yes"/>
      <point x="660" y="636" type="line"/>
      <point x="742" y="649"/>
      <point x="785" y="731"/>
      <point x="785" y="808" type="curve"/>
      <point x="712" y="808" type="line"/>
      <point x="712" y="749"/>
      <point x="685" y="687"/>
      <point x="617" y="687" type="curve" smooth="yes"/>
      <point x="582" y="687" type="line"/>
      <point x="582" y="285" type="line" smooth="yes"/>
      <point x="582" y="159"/>
      <point x="504" y="59"/>
      <point x="373" y="59" type="curve" smooth="yes"/>
      <point x="242" y="59"/>
      <point x="164" y="159"/>
      <point x="164" y="285" type="curve" smooth="yes"/>
      <point x="164" y="687" type="line"/>
      <point x="86" y="687" type="line"/>
    </contour>
  </outline>
</glyph>
<glyph name="uhorn" format="2">
  <advance width="602"/>
  <unicode hex="01B0"/>
  <outline>
    <contour>
      <point x="515" y="465" type="line"/>
      <point x="599" y="480"/>
      <point x="643" y="557"/>
      <point x="643" y="638" type="curve"/>
      <point x="570" y="638" type="line"/>
      <point x="570" y="578"/>
      <point x="543" y="517"/>
      <point x="475" y="517" type="curve" smooth="yes"/>
      <point x="440" y="517" type="line"/>
      <point x="440" y="188" type="line" smooth="yes"/>
      <point x="440" y="105"/>
      <point x="355" y="55"/>
      <point x="280" y="55" type="curve" smooth="yes"/>
      <point x="197" y="55"/>
      <point x="151" y="120"/>
      <point x="151" y="198" type="curve" smooth="yes"/>
      <point x="151" y="517" type="line"/>
      <point x="76" y="517" type="line"/>
      <point x="76" y="188" type="line" smooth="yes"/>
      <point x="76" y="72"/>
      <point x="153" y="-12"/>
      <point x="270" y="-12" type="curve" smooth="yes"/>
      <point x="338" y="-12"/>
      <point x="407" y="23"/>
      <point x="440" y="83" type="curve"/>
      <point x="440" y="0" type="line"/>
      <point x="515" y="0" type="line"/>
    </contour>
  </outline>
</glyph>
<glyph name="schwa" format="2">
  <advance width="568"/>
  <unicode hex="0259"/>
  <anchor x="300" y="529" name="bottom"/>
  <anchor x="277" y="0" name="top"/>
  <outline>
    <contour>
      <point x="270" y="529" type="curve" smooth="yes"/>
      <point x="198" y="529"/>
      <point x="107" y="498"/>
      <point x="62" y="449" type="curve"/>
      <point x="108" y="400" type="line"/>
      <point x="140" y="435"/>
      <point x="210" y="462"/>
      <point x="271" y="462" type="curve" smooth="yes"/>
      <point x="383" y="462"/>
      <point x="457" y="373"/>
      <point x="457" y="257" type="curve" smooth="yes"/>
      <point x="457" y="137"/>
      <point x="377" y="55"/>
      <point x="274" y="55" type="curve" smooth="yes"/>
      <point x="161" y="55"/>
      <point x="105" y="143"/>
      <point x="105" y="249" type="curve"/>
      <point x="62" y="220" type="line"/>
      <point x="481" y="220" type="line"/>
      <point x="481" y="287" type="line"/>
      <point x="32" y="287" type="line"/>
      <point x="32" y="106"/>
      <point x="121" y="-12"/>
      <point x="277" y="-12" type="curve" smooth="yes"/>
      <point x="416" y="-12"/>
      <point x="532" y="103"/>
      <point x="532" y="257" type="curve" smooth="yes"/>
      <point x="532" y="416"/>
      <point x="408" y="529"/>
    </contour>
  </outline>
</glyph>
<glyph name="dotaccent" format="2">
  <advance width="170"/>
  <unicode hex="02D9"/>
  <anchor x="85" y="517" name="_top"/>
  <anchor x="85" y="0" name="bottom"/>
  <anchor x="85" y="704" name="top"/>
  <outline>
    <contour>
      <point x="85" y="597" type="curve" smooth="yes"/>
      <point x="110" y="597"/>
      <point x="131" y="618"/>
      <point x="131" y="643" type="curve" smooth="yes"/>
      <point x="131" y="667"/>
      <point x="110" y="689"/>
      <point x="85" y="689" type="curve" smooth="yes"/>
      <point x="59" y="689"/>
      <point x="39" y="667"/>
      <point x="39" y="643" type="curve" smooth="yes"/>
      <point x="39" y="618"/>
      <point x="59" y="597"/>
    </contour>
  </outline>
</glyph>
<glyph name="ring" format="2">
  <advance width="282"/>
  <unicode hex="02DA"/>
  <anchor x="141" y="517" name="_top"/>
  <anchor x="141" y="704" name="top"/>
  <outline>
    <contour>
      <point x="141" y="589" type="curve" smooth="yes"/>
      <point x="198" y="589"/>
      <point x="244" y="635"/>
      <point x="244" y="692" type="curve" smooth="yes"/>
      <point x="244" y="749"/>
      <point x="198" y="795"/>
      <point x="141" y="795" type="curve" smooth="yes"/>
      <point x="84" y="795"/>
      <point x="38" y="749"/>
      <point x="38" y="692" type="curve" smooth="yes"/>
      <point x="38" y="635"/>
      <point x="84" y="589"/>
    </contour>
    <contour>
      <point x="141" y="633" type="curve" smooth="yes"/>
      <point x="109" y="633"/>
      <point x="82" y="660"/>
      <point x="82" y="692" type="curve" smooth="yes"/>
      <point x="82" y="724"/>
      <point x="109" y="751"/>
      <point x="141" y="751" type="curve" smooth="yes"/>
      <point x="173" y="751"/>
      <point x="200" y="724"/>
      <point x="200" y="692" type="curve" smooth="yes"/>
      <point x="200" y="660"/>
      <point x="173" y="633"/>
    </contour>
  </outline>
</glyph>
<glyph name="tilde" format="2">
  <advance width="396"/>
  <unicode hex="02DC"/>
  <anchor x="198" y="517" name="_top"/>
  <anchor x="198" y="704" name="top"/>
  <outline>
    <contour>
      <point x="282" y="575" type="curve" smooth="yes"/>
      <point x="337" y="575"/>
      <point x="368" y="618"/>
      <point x="378" y="694" type="curve"/>
      <point x="332" y="701" type="line"/>
      <point x="324" y="653"/>
      <point x="308" y="633"/>
      <point x="282" y="633" type="curve" smooth="yes"/>
      <point x="241" y="633"/>
      <point x="172" y="699"/>
      <point x="113" y="699" type="curve" smooth="yes"/>
      <point x="58" y="699"/>
      <point x="27" y="656"/>
      <point x="17" y="580" type="curve"/>
      <point x="63" y="573" type="line"/>
      <point x="71" y="621"/>
      <point x="87" y="641"/>
      <point x="113" y="641" type="curve" smooth="yes"/>
      <point x="154" y="641"/>
      <point x="223" y="575"/>
    </contour>
  </outline>
</glyph>
<glyph name="dotaccentcomb" format="2">
  <advance width="176"/>
  <unicode hex="0307"/>
  <anchor x="88" y="517" name="_top"/>
  <outline>
    <contour>
      <point x="88" y="611" type="curve" smooth="yes"/>
      <point x="115" y="611"/>
      <point x="137" y="634"/>
      <point x="137" y="661" type="curve" smooth="yes"/>
      <point x="137" y="687"/>
      <point x="115" y="710"/>
      <point x="88" y="710" type="curve" smooth="yes"/>
      <point x="60" y="710"/>
      <point x="38" y="687"/>
      <point x="38" y="661" type="curve" smooth="yes"/>
      <point x="38" y="634"/>
      <point x="60" y="611"/>
    </contour>
  </outline>
</glyph>
<glyph name="hookabovecomb" format="2">
  <advance width="573"/>
  <unicode hex="0309"/>
  <outline>
    <contour>
      <point x="261" y="572" type="line"/>
      <point x="305" y="572" type="line"/>
      <point x="305" y="595" type="line"/>
      <point x="344" y="610"/>
      <point x="387" y="636"/>
      <point x="387" y="683" type="curve" smooth="yes"/>
      <point x="387" y="735"/>
      <point x="339" y="751"/>
      <point x="295" y="751" type="curve" smooth="yes"/>
      <point x="264" y="751"/>
      <point x="233" y="743"/>
      <point x="205" y="731" type="curve"/>
      <point x="209" y="686" type="line"/>
      <point x="232" y="697"/>
      <point x="260" y="708"/>
      <point x="286" y="708" type="curve" smooth="yes"/>
      <point x="308" y="708"/>
      <point x="332" y="703"/>
      <point x="332" y="676" type="curve" smooth="yes"/>
      <point x="332" y="644"/>
      <point x="285" y="624"/>
      <point x="261" y="615" type="curve"/>
    </contour>
  </outline>
</glyph>
<glyph name="dblgravecomb" format="2">
  <advance width="527"/>
  <unicode hex="030F"/>
  <outline>
    <contour>
      <point x="264" y="702" type="line"/>
      <point x="406" y="575" type="line"/>
      <point x="464" y="575" type="line"/>
      <point x="343" y="720" type="line"/>
    </contour>
    <contour>
      <point x="64" y="700" type="line"/>
      <point x="206" y="575" type="line"/>
      <point x="264" y="575" type="line"/>
      <point x="143" y="718" type="line"/>
    </contour>
  </outline>
</glyph>
<glyph name="breveinvertedcomb" format="2">
  <advance width="418"/>
  <unicode hex="0311"/>
  <outline>
    <contour>
      <point x="209" y="696" type="curve" smooth="yes"/>
      <point x="153" y="696"/>
      <point x="103" y="676"/>
      <point x="63" y="636" type="curve"/>
      <point x="110" y="589" type="line"/>
      <point x="137" y="615"/>
      <point x="171" y="631"/>
      <point x="209" y="631" type="curve" smooth="yes"/>
      <point x="247" y="631"/>
      <point x="281" y="615"/>
      <point x="308" y="589" type="curve"/>
      <point x="355" y="636" type="line"/>
      <point x="315" y="675"/>
      <point x="265" y="696"/>
    </contour>
  </outline>
</glyph>
<glyph name="horncomb" format="2">
  <advance width="592"/>
  <unicode hex="031B"/>
  <outline>
    <contour>
      <point x="475" y="517" type="curve" smooth="yes"/>
      <point x="440" y="517" type="line"/>
      <point x="440" y="462" type="line"/>
      <point x="475" y="462" type="line" smooth="yes"/>
      <point x="581" y="462"/>
      <point x="643" y="534"/>
      <point x="643" y="638" type="curve"/>
      <point x="570" y="638" type="line"/>
      <point x="570" y="578"/>
      <point x="543" y="517"/>
    </contour>
  </outline>
</glyph>
<glyph name="dotbelowcomb" format="2">
  <advance width="627"/>
  <unicode hex="0323"/>
  <outline>
    <contour>
      <point x="326" y="-73" type="curve" smooth="yes"/>
      <point x="298" y="-73"/>
      <point x="276" y="-94"/>
      <point x="276" y="-122" type="curve" smooth="yes"/>
      <point x="276" y="-149"/>
      <point x="298" y="-172"/>
      <point x="326" y="-172" type="curve" smooth="yes"/>
      <point x="353" y="-172"/>
      <point x="375" y="-149"/>
      <point x="375" y="-122" type="curve" smooth="yes"/>
      <point x="375" y="-95"/>
      <point x="353" y="-73"/>
    </contour>
  </outline>
</glyph>
<glyph name="commaaccentcomb" format="2">
  <advance width="174"/>
  <unicode hex="0326"/>
  <anchor x="84" y="0" name="_bottom"/>
  <anchor x="84" y="517" name="_top"/>
  <outline>
    <contour>
      <point x="71" y="-275" type="line"/>
      <point x="121" y="-211"/>
      <point x="136" y="-183"/>
      <point x="136" y="-150" type="curve" smooth="yes"/>
      <point x="136" y="-110"/>
      <point x="116" y="-82"/>
      <point x="84" y="-82" type="curve" smooth="yes"/>
      <point x="58" y="-82"/>
      <point x="38" y="-103"/>
      <point x="38" y="-127" type="curve" smooth="yes"/>
      <point x="38" y="-152"/>
      <point x="58" y="-173"/>
      <point x="83" y="-173" type="curve"/>
      <point x="77" y="-200"/>
      <point x="62" y="-226"/>
      <point x="39" y="-252" type="curve"/>
    </contour>
  </outline>
</glyph>
<glyph name="Udotbelow" format="2">
  <advance width="746"/>
  <unicode hex="1EE4"/>
  <outline>
    <contour>
      <point x="370" y="-73" type="curve" smooth="yes"/>
      <point x="342" y="-73"/>
      <point x="320" y="-94"/>
      <point x="320" y="-122" type="curve" smooth="yes"/>
      <point x="320" y="-149"/>
      <point x="342" y="-172"/>
      <point x="370" y="-172" type="curve" smooth="yes"/>
      <point x="397" y="-172"/>
      <point x="419" y="-149"/>
      <point x="419" y="-122" type="curve" smooth="yes"/>
      <point x="419" y="-95"/>
      <point x="397" y="-73"/>
    </contour>
    <contour>
      <point x="86" y="285" type="line" smooth="yes"/>
      <point x="86" y="115"/>
      <point x="199" y="-12"/>
      <point x="373" y="-12" type="curve" smooth="yes"/>
      <point x="547" y="-12"/>
      <point x="660" y="115"/>
      <point x="660" y="285" type="curve" smooth="yes"/>
      <point x="660" y="687" type="line"/>
      <point x="582" y="687" type="line"/>
      <point x="582" y="285" type="line" smooth="yes"/>
      <point x="582" y="159"/>
      <point x="504" y="59"/>
      <point x="373" y="59" type="curve" smooth="yes"/>
      <point x="242" y="59"/>
      <point x="164" y="159"/>
      <point x="164" y="285" type="curve" smooth="yes"/>
      <point x="164" y="687" type="line"/>
      <point x="86" y="687" type="line"/>
    </contour>
  </outline>
</glyph>
<glyph name="udotbelow" format="2">
  <advance width="592"/>
  <unicode hex="1EE5"/>
  <outline>
    <contour>
      <point x="297" y="-73" type="curve" smooth="yes"/>
      <point x="269" y="-73"/>
      <point x="247" y="-94"/>
      <point x="247" y="-122" type="curve" smooth="yes"/>
      <point x="247" y="-149"/>
      <point x="269" y="-172"/>
      <point x="297" y="-172" type="curve" smooth="yes"/>
      <point x="324" y="-172"/>
      <point x="346" y="-149"/>
      <point x="346" y="-122" type="curve" smooth="yes"/>
      <point x="346" y="-95"/>
      <point x="324" y="-73"/>
    </contour>
    <contour>
      <point x="440" y="188" type="line" smooth="yes"/>
      <point x="440" y="105"/>
      <point x="355" y="55"/>
      <point x="280" y="55" type="curve" smooth="yes"/>
      <point x="197" y="55"/>
      <point x="151" y="119"/>
      <point x="151" y="198" type="curve" smooth="yes"/>
      <point x="151" y="517" type="line"/>
      <point x="76" y="517" type="line"/>
      <point x="76" y="188" type="line" smooth="yes"/>
      <point x="76" y="72"/>
      <point x="153" y="-12"/>
      <point x="270" y="-12" type="curve" smooth="yes"/>
      <point x="338" y="-12"/>
      <point x="407" y="23"/>
      <point x="440" y="83" type="curve"/>
      <point x="440" y="0" type="line"/>
      <point x="515" y="0" type="line"/>
      <point x="515" y="517" type="line"/>
      <point x="440" y="517" type="line"/>
    </contour>
  </outline>
</glyph>
<glyph name="fraction" format="2">
  <advance width="170"/>
  <unicode hex="2044"/>
  <outline>
    <contour>
      <point x="-98" y="8" type="line"/>
      <point x="365" y="687" type="line"/>
      <point x="280" y="687" type="line"/>
      <point x="-183" y="8" type="line"/>
    </contour>
  </outline>
</glyph>
<glyph name="zero.superior" format="2">
  <advance width="422"/>
  <unicode hex="2070"/>
  <outline>
    <contour>
      <point x="211" y="268" type="curve" smooth="yes"/>
      <point x="316" y="268"/>
      <point x="390" y="356"/>
      <point x="390" y="481" type="curve" smooth="yes"/>
      <point x="390" y="606"/>
      <point x="316" y="694"/>
      <point x="211" y="694" type="curve" smooth="yes"/>
      <point x="105" y="694"/>
      <point x="32" y="606"/>
      <point x="32" y="481" type="curve" smooth="yes"/>
      <point x="32" y="356"/>
      <point x="105" y="268"/>
    </contour>
    <contour>
      <point x="211" y="333" type="curve" smooth="yes"/>
      <point x="149" y="333"/>
      <point x="105" y="395"/>
      <point x="105" y="481" type="curve" smooth="yes"/>
      <point x="105" y="568"/>
      <point x="149" y="629"/>
      <point x="211" y="629" type="curve" smooth="yes"/>
      <point x="273" y="629"/>
      <point x="317" y="568"/>
      <point x="317" y="481" type="curve" smooth="yes"/>
      <point x="317" y="395"/>
      <point x="273" y="333"/>
    </contour>
  </outline>
</glyph>
<glyph name="four.superior" format="2">
  <advance width="393"/>
  <unicode hex="2074"/>
  <outline>
    <contour>
      <point x="308" y="275" type="line"/>
      <point x="308" y="366" type="line"/>
      <point x="365" y="366" type="line"/>
      <point x="365" y="427" type="line"/>
      <point x="308" y="427" type="line"/>
      <point x="308" y="687" type="line"/>
      <point x="222" y="687" type="line"/>
      <point x="26" y="422" type="line"/>
      <point x="33" y="366" type="line"/>
      <point x="237" y="366" type="line"/>
      <point x="237" y="275" type="line"/>
    </contour>
    <contour>
      <point x="237" y="609" type="line"/>
      <point x="237" y="427" type="line"/>
      <point x="103" y="427" type="line"/>
    </contour>
  </outline>
</glyph>
<glyph name="five.superior" format="2">
  <advance width="368"/>
  <unicode hex="2075"/>
  <outline>
    <contour>
      <point x="181" y="268" type="curve" smooth="yes"/>
      <point x="274" y="268"/>
      <point x="338" y="323"/>
      <point x="338" y="408" type="curve" smooth="yes"/>
      <point x="338" y="490"/>
      <point x="275" y="538"/>
      <point x="202" y="538" type="curve" smooth="yes"/>
      <point x="167" y="538"/>
      <point x="139" y="526"/>
      <point x="118" y="511" type="curve"/>
      <point x="122" y="622" type="line"/>
      <point x="316" y="622" type="line"/>
      <point x="316" y="687" type="line"/>
      <point x="54" y="687" type="line"/>
      <point x="48" y="468" type="line"/>
      <point x="98" y="448" type="line"/>
      <point x="121" y="466"/>
      <point x="150" y="477"/>
      <point x="182" y="477" type="curve" smooth="yes"/>
      <point x="232" y="477"/>
      <point x="266" y="447"/>
      <point x="266" y="405" type="curve" smooth="yes"/>
      <point x="266" y="363"/>
      <point x="233" y="330"/>
      <point x="182" y="330" type="curve" smooth="yes"/>
      <point x="141" y="330"/>
      <point x="102" y="351"/>
      <point x="70" y="383" type="curve"/>
      <point x="28" y="332" type="line"/>
      <point x="64" y="294"/>
      <point x="115" y="268"/>
    </contour>
  </outline>
</glyph>
<glyph name="six.superior" format="2">
  <advance width="382"/>
  <unicode hex="2076"/>
  <outline>
    <contour>
      <point x="199" y="268" type="curve" smooth="yes"/>
      <point x="287" y="268"/>
      <point x="352" y="327"/>
      <point x="352" y="408" type="curve" smooth="yes"/>
      <point x="352" y="490"/>
      <point x="289" y="538"/>
      <point x="214" y="538" type="curve" smooth="yes"/>
      <point x="162" y="538"/>
      <point x="115" y="512"/>
      <point x="93" y="471" type="curve"/>
      <point x="104" y="392" type="line"/>
      <point x="106" y="443"/>
      <point x="144" y="479"/>
      <point x="195" y="479" type="curve" smooth="yes"/>
      <point x="241" y="479"/>
      <point x="279" y="451"/>
      <point x="279" y="405" type="curve" smooth="yes"/>
      <point x="279" y="366"/>
      <point x="247" y="329"/>
      <point x="197" y="329" type="curve" smooth="yes"/>
      <point x="131" y="329"/>
      <point x="106" y="387"/>
      <point x="106" y="475" type="curve" smooth="yes"/>
      <point x="106" y="566"/>
      <point x="149" y="631"/>
      <point x="212" y="631" type="curve" smooth="yes"/>
      <point x="249" y="631"/>
      <point x="275" y="616"/>
      <point x="300" y="594" type="curve"/>
      <point x="335" y="648" type="line"/>
      <point x="303" y="677"/>
      <point x="263" y="694"/>
      <point x="212" y="694" type="curve" smooth="yes"/>
      <point x="106" y="694"/>
      <point x="32" y="601"/>
      <point x="32" y="475" type="curve" smooth="yes"/>
      <point x="32" y="355"/>
      <point x="84" y="268"/>
    </contour>
  </outline>
</glyph>
<glyph name="seven.superior" format="2">
  <advance width="351"/>
  <unicode hex="2077"/>
  <outline>
    <contour>
      <point x="152" y="275" type="line"/>
      <point x="323" y="634" type="line"/>
      <point x="323" y="687" type="line"/>
      <point x="27" y="687" type="line"/>
      <point x="27" y="622" type="line"/>
      <point x="240" y="622" type="line"/>
      <point x="71" y="275" type="line"/>
    </contour>
  </outline>
</glyph>
<glyph name="eight.superior" format="2">
  <advance width="380"/>
  <unicode hex="2078"/>
  <outline>
    <contour>
      <point x="190" y="268" type="curve" smooth="yes"/>
      <point x="278" y="268"/>
      <point x="349" y="312"/>
      <point x="349" y="385" type="curve" smooth="yes"/>
      <point x="349" y="433"/>
      <point x="314" y="470"/>
      <point x="265" y="488" type="curve"/>
      <point x="307" y="505"/>
      <point x="339" y="536"/>
      <point x="339" y="584" type="curve" smooth="yes"/>
      <point x="339" y="652"/>
      <point x="268" y="694"/>
      <point x="190" y="694" type="curve" smooth="yes"/>
      <point x="113" y="694"/>
      <point x="42" y="654"/>
      <point x="42" y="583" type="curve" smooth="yes"/>
      <point x="42" y="537"/>
      <point x="72" y="506"/>
      <point x="115" y="488" type="curve"/>
      <point x="67" y="471"/>
      <point x="31" y="435"/>
      <point x="31" y="385" type="curve" smooth="yes"/>
      <point x="31" y="312"/>
      <point x="101" y="268"/>
    </contour>
    <contour>
      <point x="190" y="329" type="curve" smooth="yes"/>
      <point x="140" y="329"/>
      <point x="103" y="355"/>
      <point x="103" y="392" type="curve" smooth="yes"/>
      <point x="103" y="431"/>
      <point x="151" y="455"/>
      <point x="190" y="456" type="curve"/>
      <point x="230" y="455"/>
      <point x="277" y="431"/>
      <point x="277" y="392" type="curve" smooth="yes"/>
      <point x="277" y="355"/>
      <point x="238" y="329"/>
    </contour>
    <contour>
      <point x="190" y="514" type="curve"/>
      <point x="154" y="516"/>
      <point x="113" y="537"/>
      <point x="113" y="574" type="curve" smooth="yes"/>
      <point x="113" y="608"/>
      <point x="145" y="633"/>
      <point x="190" y="633" type="curve" smooth="yes"/>
      <point x="234" y="633"/>
      <point x="267" y="608"/>
      <point x="267" y="574" type="curve" smooth="yes"/>
      <point x="267" y="538"/>
      <point x="227" y="516"/>
    </contour>
  </outline>
</glyph>
<glyph name="nine.superior" format="2">
  <advance width="382"/>
  <unicode hex="2079"/>
  <outline>
    <contour>
      <point x="182" y="694" type="curve" smooth="yes"/>
      <point x="94" y="694"/>
      <point x="30" y="635"/>
      <point x="30" y="554" type="curve" smooth="yes"/>
      <point x="30" y="473"/>
      <point x="92" y="424"/>
      <point x="168" y="424" type="curve" smooth="yes"/>
      <point x="219" y="424"/>
      <point x="267" y="451"/>
      <point x="288" y="491" type="curve"/>
      <point x="278" y="570" type="line"/>
      <point x="276" y="519"/>
      <point x="237" y="483"/>
      <point x="187" y="483" type="curve" smooth="yes"/>
      <point x="140" y="483"/>
      <point x="103" y="512"/>
      <point x="103" y="557" type="curve" smooth="yes"/>
      <point x="103" y="596"/>
      <point x="135" y="634"/>
      <point x="185" y="634" type="curve" smooth="yes"/>
      <point x="251" y="634"/>
      <point x="276" y="575"/>
      <point x="276" y="487" type="curve" smooth="yes"/>
      <point x="276" y="396"/>
      <point x="233" y="331"/>
      <point x="170" y="331" type="curve" smooth="yes"/>
      <point x="133" y="331"/>
      <point x="107" y="346"/>
      <point x="82" y="368" type="curve"/>
      <point x="47" y="314" type="line"/>
      <point x="79" y="286"/>
      <point x="119" y="268"/>
      <point x="170" y="268" type="curve" smooth="yes"/>
      <point x="276" y="268"/>
      <point x="349" y="361"/>
      <point x="349" y="487" type="curve" smooth="yes"/>
      <point x="349" y="607"/>
      <point x="298" y="694"/>
    </contour>
  </outline>
</glyph>
<glyph name="zero.inferior" format="2">
  <advance width="422"/>
  <unicode hex="2080"/>
  <outline>
    <contour>
      <point x="211" y="-7" type="curve" smooth="yes"/>
      <point x="316" y="-7"/>
      <point x="390" y="81"/>
      <point x="390" y="206" type="curve" smooth="yes"/>
      <point x="390" y="331"/>
      <point x="316" y="419"/>
      <point x="211" y="419" type="curve" smooth="yes"/>
      <point x="105" y="419"/>
      <point x="32" y="331"/>
      <point x="32" y="206" type="curve" smooth="yes"/>
      <point x="32" y="81"/>
      <point x="105" y="-7"/>
    </contour>
    <contour>
      <point x="211" y="58" type="curve" smooth="yes"/>
      <point x="149" y="58"/>
      <point x="105" y="120"/>
      <point x="105" y="206" type="curve" smooth="yes"/>
      <point x="105" y="293"/>
      <point x="149" y="354"/>
      <point x="211" y="354" type="curve" smooth="yes"/>
      <point x="273" y="354"/>
      <point x="317" y="293"/>
      <point x="317" y="206" type="curve" smooth="yes"/>
      <point x="317" y="120"/>
      <point x="273" y="58"/>
    </contour>
  </outline>
</glyph>
<glyph name="one.inferior" format="2">
  <advance width="245"/>
  <unicode hex="2081"/>
  <outline>
    <contour>
      <point x="196" y="0" type="line"/>
      <point x="196" y="412" type="line"/>
      <point x="140" y="412" type="line"/>
      <point x="23" y="334" type="line"/>
      <point x="53" y="283" type="line"/>
      <point x="125" y="329" type="line"/>
      <point x="125" y="0" type="line"/>
    </contour>
  </outline>
</glyph>
<glyph name="two.inferior" format="2">
  <advance width="365"/>
  <unicode hex="2082"/>
  <outline>
    <contour>
      <point x="332" y="0" type="line"/>
      <point x="332" y="65" type="line"/>
      <point x="142" y="65" type="line"/>
      <point x="231" y="139" type="line"/>
      <point x="303" y="193"/>
      <point x="328" y="237"/>
      <point x="328" y="292" type="curve" smooth="yes"/>
      <point x="328" y="367"/>
      <point x="266" y="419"/>
      <point x="184" y="419" type="curve" smooth="yes"/>
      <point x="119" y="419"/>
      <point x="69" y="391"/>
      <point x="31" y="339" type="curve"/>
      <point x="78" y="296" type="line"/>
      <point x="107" y="333"/>
      <point x="139" y="355"/>
      <point x="183" y="355" type="curve" smooth="yes"/>
      <point x="221" y="355"/>
      <point x="255" y="330"/>
      <point x="255" y="290" type="curve" smooth="yes"/>
      <point x="255" y="256"/>
      <point x="236" y="224"/>
      <point x="183" y="181" type="curve" smooth="yes"/>
      <point x="31" y="59" type="line"/>
      <point x="31" y="0" type="line"/>
    </contour>
  </outline>
</glyph>
<glyph name="three.inferior" format="2">
  <advance width="367"/>
  <unicode hex="2083"/>
  <outline>
    <contour>
      <point x="184" y="-7" type="curve" smooth="yes"/>
      <point x="275" y="-7"/>
      <point x="336" y="43"/>
      <point x="336" y="114" type="curve" smooth="yes"/>
      <point x="336" y="170"/>
      <point x="294" y="202"/>
      <point x="250" y="211" type="curve"/>
      <point x="293" y="225"/>
      <point x="327" y="258"/>
      <point x="327" y="307" type="curve" smooth="yes"/>
      <point x="327" y="373"/>
      <point x="269" y="419"/>
      <point x="182" y="419" type="curve" smooth="yes"/>
      <point x="113" y="419"/>
      <point x="66" y="389"/>
      <point x="32" y="347" type="curve"/>
      <point x="75" y="303" type="line"/>
      <point x="104" y="335"/>
      <point x="134" y="355"/>
      <point x="176" y="355" type="curve" smooth="yes"/>
      <point x="222" y="355"/>
      <point x="254" y="331"/>
      <point x="254" y="295" type="curve" smooth="yes"/>
      <point x="254" y="259"/>
      <point x="222" y="238"/>
      <point x="172" y="239" type="curve"/>
      <point x="127" y="239" type="line"/>
      <point x="127" y="177" type="line"/>
      <point x="172" y="177" type="line"/>
      <point x="232" y="177"/>
      <point x="263" y="157"/>
      <point x="263" y="119" type="curve" smooth="yes"/>
      <point x="263" y="83"/>
      <point x="231" y="57"/>
      <point x="181" y="57" type="curve" smooth="yes"/>
      <point x="137" y="57"/>
      <point x="97" y="77"/>
      <point x="69" y="110" type="curve"/>
      <point x="24" y="64" type="line"/>
      <point x="58" y="23"/>
      <point x="112" y="-7"/>
    </contour>
  </outline>
</glyph>
<glyph name="four.inferior" format="2">
  <advance width="393"/>
  <unicode hex="2084"/>
  <outline>
    <contour>
      <point x="308" y="0" type="line"/>
      <point x="308" y="91" type="line"/>
      <point x="365" y="91" type="line"/>
      <point x="365" y="152" type="line"/>
      <point x="308" y="152" type="line"/>
      <point x="308" y="412" type="line"/>
      <point x="222" y="412" type="line"/>
      <point x="26" y="147" type="line"/>
      <point x="33" y="91" type="line"/>
      <point x="237" y="91" type="line"/>
      <point x="237" y="0" type="line"/>
    </contour>
    <contour>
      <point x="237" y="334" type="line"/>
      <point x="237" y="152" type="line"/>
      <point x="103" y="152" type="line"/>
    </contour>
  </outline>
</glyph>
<glyph name="five.inferior" format="2">
  <advance width="368"/>
  <unicode hex="2085"/>
  <outline>
    <contour>
      <point x="181" y="-7" type="curve" smooth="yes"/>
      <point x="274" y="-7"/>
      <point x="338" y="48"/>
      <point x="338" y="133" type="curve" smooth="yes"/>
      <point x="338" y="215"/>
      <point x="275" y="263"/>
      <point x="202" y="263" type="curve" smooth="yes"/>
      <point x="167" y="263"/>
      <point x="139" y="251"/>
      <point x="118" y="236" type="curve"/>
      <point x="122" y="347" type="line"/>
      <point x="316" y="347" type="line"/>
      <point x="316" y="412" type="line"/>
      <point x="54" y="412" type="line"/>
      <point x="48" y="193" type="line"/>
      <point x="98" y="173" type="line"/>
      <point x="121" y="191"/>
      <point x="150" y="202"/>
      <point x="182" y="202" type="curve" smooth="yes"/>
      <point x="232" y="202"/>
      <point x="266" y="172"/>
      <point x="266" y="130" type="curve" smooth="yes"/>
      <point x="266" y="88"/>
      <point x="233" y="55"/>
      <point x="182" y="55" type="curve" smooth="yes"/>
      <point x="141" y="55"/>
      <point x="102" y="76"/>
      <point x="70" y="108" type="curve"/>
      <point x="28" y="57" type="line"/>
      <point x="64" y="19"/>
      <point x="115" y="-7"/>
    </contour>
  </outline>
</glyph>
<glyph name="six.inferior" format="2">
  <advance width="382"/>
  <unicode hex="2086"/>
  <outline>
    <contour>
      <point x="199" y="-7" type="curve" smooth="yes"/>
      <point x="287" y="-7"/>
      <point x="352" y="52"/>
      <point x="352" y="133" type="curve" smooth="yes"/>
      <point x="352" y="215"/>
      <point x="289" y="263"/>
      <point x="214" y="263" type="curve" smooth="yes"/>
      <point x="162" y="263"/>
      <point x="115" y="237"/>
      <point x="93" y="196" type="curve"/>
      <point x="104" y="117" type="line"/>
      <point x="106" y="168"/>
      <point x="144" y="204"/>
      <point x="195" y="204" type="curve" smooth="yes"/>
      <point x="241" y="204"/>
      <point x="279" y="176"/>
      <point x="279" y="130" type="curve" smooth="yes"/>
      <point x="279" y="91"/>
      <point x="247" y="54"/>
      <point x="197" y="54" type="curve" smooth="yes"/>
      <point x="131" y="54"/>
      <point x="106" y="112"/>
      <point x="106" y="200" type="curve" smooth="yes"/>
      <point x="106" y="291"/>
      <point x="149" y="356"/>
      <point x="212" y="356" type="curve" smooth="yes"/>
      <point x="249" y="356"/>
      <point x="275" y="341"/>
      <point x="300" y="319" type="curve"/>
      <point x="335" y="373" type="line"/>
      <point x="303" y="402"/>
      <point x="263" y="419"/>
      <point x="212" y="419" type="curve" smooth="yes"/>
      <point x="106" y="419"/>
      <point x="32" y="326"/>
      <point x="32" y="200" type="curve" smooth="yes"/>
      <point x="32" y="80"/>
      <point x="84" y="-7"/>
    </contour>
  </outline>
</glyph>
<glyph name="seven.inferior" format="2">
  <advance width="351"/>
  <unicode hex="2087"/>
  <outline>
    <contour>
      <point x="152" y="0" type="line"/>
      <point x="323" y="359" type="line"/>
      <point x="323" y="412" type="line"/>
      <point x="27" y="412" type="line"/>
      <point x="27" y="347" type="line"/>
      <point x="240" y="347" type="line"/>
      <point x="71" y="0" type="line"/>
    </contour>
  </outline>
</glyph>
<glyph name="eight.inferior" format="2">
  <advance width="380"/>
  <unicode hex="2088"/>
  <outline>
    <contour>
      <point x="190" y="-7" type="curve" smooth="yes"/>
      <point x="278" y="-7"/>
      <point x="349" y="37"/>
      <point x="349" y="110" type="curve" smooth="yes"/>
      <point x="349" y="158"/>
      <point x="314" y="195"/>
      <point x="265" y="213" type="curve"/>
      <point x="307" y="230"/>
      <point x="339" y="261"/>
      <point x="339" y="309" type="curve" smooth="yes"/>
      <point x="339" y="377"/>
      <point x="268" y="419"/>
      <point x="190" y="419" type="curve" smooth="yes"/>
      <point x="113" y="419"/>
      <point x="42" y="379"/>
      <point x="42" y="308" type="curve" smooth="yes"/>
      <point x="42" y="262"/>
      <point x="72" y="231"/>
      <point x="115" y="213" type="curve"/>
      <point x="67" y="196"/>
      <point x="31" y="160"/>
      <point x="31" y="110" type="curve" smooth="yes"/>
      <point x="31" y="37"/>
      <point x="101" y="-7"/>
    </contour>
    <contour>
      <point x="190" y="54" type="curve" smooth="yes"/>
      <point x="140" y="54"/>
      <point x="103" y="80"/>
      <point x="103" y="117" type="curve" smooth="yes"/>
      <point x="103" y="156"/>
      <point x="151" y="180"/>
      <point x="190" y="181" type="curve"/>
      <point x="230" y="180"/>
      <point x="277" y="156"/>
      <point x="277" y="117" type="curve" smooth="yes"/>
      <point x="277" y="80"/>
      <point x="238" y="54"/>
    </contour>
    <contour>
      <point x="190" y="239" type="curve"/>
      <point x="154" y="241"/>
      <point x="113" y="262"/>
      <point x="113" y="299" type="curve" smooth="yes"/>
      <point x="113" y="333"/>
      <point x="145" y="358"/>
      <point x="190" y="358" type="curve" smooth="yes"/>
      <point x="234" y="358"/>
      <point x="267" y="333"/>
      <point x="267" y="299" type="curve" smooth="yes"/>
      <point x="267" y="263"/>
      <point x="227" y="241"/>
    </contour>
  </outline>
</glyph>
<glyph name="nine.inferior" format="2">
  <advance width="382"/>
  <unicode hex="2089"/>
  <outline>
    <contour>
      <point x="182" y="419" type="curve" smooth="yes"/>
      <point x="94" y="419"/>
      <point x="30" y="360"/>
      <point x="30" y="279" type="curve" smooth="yes"/>
      <point x="30" y="198"/>
      <point x="92" y="149"/>
      <point x="168" y="149" type="curve" smooth="yes"/>
      <point x="219" y="149"/>
      <point x="267" y="176"/>
      <point x="288" y="216" type="curve"/>
      <point x="278" y="295" type="line"/>
      <point x="276" y="244"/>
      <point x="237" y="208"/>
      <point x="187" y="208" type="curve" smooth="yes"/>
      <point x="140" y="208"/>
      <point x="103" y="237"/>
      <point x="103" y="282" type="curve" smooth="yes"/>
      <point x="103" y="321"/>
      <point x="135" y="359"/>
      <point x="185" y="359" type="curve" smooth="yes"/>
      <point x="251" y="359"/>
      <point x="276" y="300"/>
      <point x="276" y="212" type="curve" smooth="yes"/>
      <point x="276" y="121"/>
      <point x="233" y="56"/>
      <point x="170" y="56" type="curve" smooth="yes"/>
      <point x="133" y="56"/>
      <point x="107" y="71"/>
      <point x="82" y="93" type="curve"/>
      <point x="47" y="39" type="line"/>
      <point x="79" y="11"/>
      <point x="119" y="-7"/>
      <point x="170" y="-7" type="curve" smooth="yes"/>
      <point x="276" y="-7"/>
      <point x="349" y="86"/>
      <point x="349" y="212" type="curve" smooth="yes"/>
      <point x="349" y="332"/>
      <point x="298" y="419"/>
    </contour>
  </outline>
</glyph>
<glyph name="dong" format="2">
  <advance width="657"/>
  <unicode hex="20AB"/>
  <outline>
    <contour>
      <point x="555" y="-75" type="line"/>
      <point x="69" y="-75" type="line"/>
      <point x="69" y="-142" type="line"/>
      <point x="555" y="-142" type="line"/>
    </contour>
    <contour>
      <point x="555" y="699" type="line"/>
      <point x="480" y="699" type="line"/>
      <point x="480" y="635" type="line"/>
      <point x="310" y="635" type="line"/>
      <point x="310" y="585" type="line"/>
      <point x="480" y="585" type="line"/>
      <point x="480" y="420" type="line"/>
      <point x="438" y="492"/>
      <point x="375" y="529"/>
      <point x="292" y="529" type="curve" smooth="yes"/>
      <point x="140" y="529"/>
      <point x="54" y="401"/>
      <point x="54" y="259" type="curve" smooth="yes"/>
      <point x="54" y="116"/>
      <point x="139" y="-12"/>
      <point x="292" y="-12" type="curve" smooth="yes"/>
      <point x="375" y="-12"/>
      <point x="438" y="25"/>
      <point x="480" y="97" type="curve"/>
      <point x="480" y="0" type="line"/>
      <point x="555" y="0" type="line"/>
      <point x="555" y="585" type="line"/>
      <point x="620" y="585" type="line"/>
      <point x="620" y="635" type="line"/>
      <point x="555" y="635" type="line"/>
    </contour>
    <contour>
      <point x="306" y="55" type="curve" smooth="yes"/>
      <point x="193" y="55"/>
      <point x="133" y="155"/>
      <point x="133" y="259" type="curve" smooth="yes"/>
      <point x="133" y="364"/>
      <point x="191" y="462"/>
      <point x="306" y="462" type="curve" smooth="yes"/>
      <point x="420" y="462"/>
      <point x="480" y="364"/>
      <point x="480" y="259" type="curve" smooth="yes"/>
      <point x="480" y="154"/>
      <point x="421" y="55"/>
    </contour>
  </outline>
</glyph>
<glyph name="arrowleft" format="2">
  <advance width="922"/>
  <unicode hex="2190"/>
  <outline>
    <contour>
      <point x="456" y="55" type="line"/>
      <point x="379" y="131"/>
      <point x="302" y="208"/>
      <point x="223" y="282" type="curve"/>
      <point x="253" y="281"/>
      <point x="282" y="279"/>
      <point x="312" y="279" type="curve" smooth="yes"/>
      <point x="813" y="279" type="line"/>
      <point x="813" y="357" type="line"/>
      <point x="312" y="357" type="line" smooth="yes"/>
      <point x="282" y="357"/>
      <point x="253" y="356"/>
      <point x="223" y="355" type="curve"/>
      <point x="302" y="429"/>
      <point x="379" y="505"/>
      <point x="456" y="582" type="curve"/>
      <point x="401" y="637" type="line"/>
      <point x="83" y="318" type="line"/>
      <point x="401" y="0" type="line"/>
    </contour>
  </outline>
</glyph>
<glyph name="arrowup" format="2">
  <advance width="802"/>
  <unicode hex="2191"/>
  <outline>
    <contour>
      <point x="138" y="366" type="line"/>
      <point x="291" y="521" type="line"/>
      <point x="316" y="547"/>
      <point x="341" y="573"/>
      <point x="365" y="600" type="curve"/>
      <point x="364" y="570"/>
      <point x="362" y="540"/>
      <point x="362" y="510" type="curve" smooth="yes"/>
      <point x="362" y="0" type="line"/>
      <point x="440" y="0" type="line"/>
      <point x="440" y="510" type="line" smooth="yes"/>
      <point x="440" y="540"/>
      <point x="439" y="570"/>
      <point x="438" y="600" type="curve"/>
      <point x="461" y="575"/>
      <point x="484" y="550"/>
      <point x="507" y="526" type="curve"/>
      <point x="665" y="366" type="line"/>
      <point x="720" y="421" type="line"/>
      <point x="401" y="739" type="line"/>
      <point x="83" y="421" type="line"/>
    </contour>
  </outline>
</glyph>
<glyph name="arrowright" format="2">
  <advance width="922"/>
  <unicode hex="2192"/>
  <outline>
    <contour>
      <point x="840" y="318" type="line"/>
      <point x="521" y="637" type="line"/>
      <point x="467" y="582" type="line"/>
      <point x="544" y="505"/>
      <point x="621" y="429"/>
      <point x="700" y="355" type="curve"/>
      <point x="670" y="356"/>
      <point x="640" y="357"/>
      <point x="610" y="357" type="curve" smooth="yes"/>
      <point x="109" y="357" type="line"/>
      <point x="109" y="279" type="line"/>
      <point x="610" y="279" type="line" smooth="yes"/>
      <point x="640" y="279"/>
      <point x="670" y="281"/>
      <point x="700" y="282" type="curve"/>
      <point x="621" y="208"/>
      <point x="544" y="131"/>
      <point x="467" y="55" type="curve"/>
      <point x="521" y="0" type="line"/>
    </contour>
  </outline>
</glyph>
<glyph name="arrowboth" format="2">
  <advance width="1309"/>
  <unicode hex="2194"/>
  <outline>
    <contour>
      <point x="456" y="55" type="line"/>
      <point x="379" y="131"/>
      <point x="302" y="208"/>
      <point x="223" y="282" type="curve"/>
      <point x="253" y="281"/>
      <point x="282" y="279"/>
      <point x="312" y="279" type="curve" smooth="yes"/>
      <point x="997" y="279" type="line" smooth="yes"/>
      <point x="1027" y="279"/>
      <point x="1057" y="281"/>
      <point x="1087" y="282" type="curve"/>
      <point x="1008" y="208"/>
      <point x="931" y="131"/>
      <point x="854" y="55" type="curve"/>
      <point x="908" y="0" type="line"/>
      <point x="1227" y="318" type="line"/>
      <point x="908" y="637" type="line"/>
      <point x="854" y="582" type="line"/>
      <point x="931" y="505"/>
      <point x="1008" y="429"/>
      <point x="1087" y="355" type="curve"/>
      <point x="1057" y="356"/>
      <point x="1027" y="357"/>
      <point x="997" y="357" type="curve" smooth="yes"/>
      <point x="312" y="357" type="line" smooth="yes"/>
      <point x="282" y="357"/>
      <point x="253" y="356"/>
      <point x="223" y="355" type="curve"/>
      <point x="302" y="429"/>
      <point x="379" y="505"/>
      <point x="456" y="582" type="curve"/>
      <point x="401" y="637" type="line"/>
      <point x="83" y="318" type="line"/>
      <point x="401" y="0" type="line"/>
    </contour>
  </outline>
</glyph>
<glyph name="arrowupdn" format="2">
  <advance width="802"/>
  <unicode hex="2195"/>
  <outline>
    <contour>
      <point x="720" y="65" type="line"/>
      <point x="665" y="120" type="line"/>
      <point x="588" y="43"/>
      <point x="513" y="-35"/>
      <point x="438" y="-114" type="curve"/>
      <point x="439" y="-84"/>
      <point x="440" y="-54"/>
      <point x="440" y="-24" type="curve" smooth="yes"/>
      <point x="440" y="661" type="line" smooth="yes"/>
      <point x="440" y="691"/>
      <point x="439" y="720"/>
      <point x="438" y="750" type="curve"/>
      <point x="512" y="671"/>
      <point x="588" y="593"/>
      <point x="665" y="517" type="curve"/>
      <point x="720" y="572" type="line"/>
      <point x="401" y="890" type="line"/>
      <point x="83" y="572" type="line"/>
      <point x="138" y="517" type="line"/>
      <point x="214" y="594"/>
      <point x="291" y="671"/>
      <point x="365" y="750" type="curve"/>
      <point x="364" y="720"/>
      <point x="362" y="691"/>
      <point x="362" y="661" type="curve" smooth="yes"/>
      <point x="362" y="-24" type="line" smooth="yes"/>
      <point x="362" y="-54"/>
      <point x="364" y="-84"/>
      <point x="365" y="-114" type="curve"/>
      <point x="291" y="-35"/>
      <point x="215" y="43"/>
      <point x="138" y="120" type="curve"/>
      <point x="83" y="65" type="line"/>
      <point x="401" y="-253" type="line"/>
    </contour>
  </outline>
</glyph>
<glyph name="arrowSE" format="2">
  <advance width="725"/>
  <unicode hex="2198"/>
  <outline>
    <contour>
      <point x="550" y="450" type="line"/>
      <point x="550" y="305" type="line" smooth="yes"/>
      <point x="550" y="245"/>
      <point x="552" y="185"/>
      <point x="555" y="125" type="curve"/>
      <point x="535" y="147"/>
      <point x="514" y="169"/>
      <point x="493" y="190" type="curve" smooth="yes"/>
      <point x="156" y="527" type="line"/>
      <point x="101" y="472" type="line"/>
      <point x="438" y="135" type="line" smooth="yes"/>
      <point x="459" y="114"/>
      <point x="481" y="93"/>
      <point x="503" y="73" type="curve"/>
      <point x="443" y="76"/>
      <point x="383" y="78"/>
      <point x="323" y="78" type="curve" smooth="yes"/>
      <point x="178" y="78" type="line"/>
      <point x="178" y="0" type="line"/>
      <point x="628" y="0" type="line"/>
      <point x="628" y="450" type="line"/>
    </contour>
  </outline>
</glyph>
<glyph name="arrowlefthook" format="2">
  <advance width="1111"/>
  <unicode hex="21A9"/>
  <outline>
    <contour>
      <point x="456" y="55" type="line"/>
      <point x="379" y="131"/>
      <point x="302" y="208"/>
      <point x="223" y="282" type="curve"/>
      <point x="253" y="281"/>
      <point x="282" y="279"/>
      <point x="312" y="279" type="curve" smooth="yes"/>
      <point x="796" y="279" type="line" smooth="yes"/>
      <point x="927" y="279"/>
      <point x="1031" y="385"/>
      <point x="1031" y="515" type="curve" smooth="yes"/>
      <point x="1031" y="646"/>
      <point x="927" y="750"/>
      <point x="796" y="750" type="curve" smooth="yes"/>
      <point x="760" y="750" type="line"/>
      <point x="760" y="672" type="line"/>
      <point x="796" y="672" type="line" smooth="yes"/>
      <point x="882" y="672"/>
      <point x="953" y="602"/>
      <point x="953" y="515" type="curve" smooth="yes"/>
      <point x="953" y="428"/>
      <point x="883" y="357"/>
      <point x="796" y="357" type="curve" smooth="yes"/>
      <point x="312" y="357" type="line" smooth="yes"/>
      <point x="282" y="357"/>
      <point x="253" y="356"/>
      <point x="223" y="355" type="curve"/>
      <point x="302" y="429"/>
      <point x="379" y="505"/>
      <point x="456" y="582" type="curve"/>
      <point x="401" y="637" type="line"/>
      <point x="83" y="318" type="line"/>
      <point x="401" y="0" type="line"/>
    </contour>
  </outline>
</glyph>
<glyph name="arrowrighthook" format="2">
  <advance width="1111"/>
  <unicode hex="21AA"/>
  <outline>
    <contour>
      <point x="1028" y="318" type="line"/>
      <point x="710" y="637" type="line"/>
      <point x="655" y="582" type="line"/>
      <point x="732" y="505"/>
      <point x="810" y="430"/>
      <point x="889" y="355" type="curve"/>
      <point x="859" y="356"/>
      <point x="829" y="357"/>
      <point x="799" y="357" type="curve" smooth="yes"/>
      <point x="315" y="357" type="line" smooth="yes"/>
      <point x="229" y="357"/>
      <point x="158" y="429"/>
      <point x="158" y="515" type="curve" smooth="yes"/>
      <point x="158" y="601"/>
      <point x="229" y="672"/>
      <point x="315" y="672" type="curve" smooth="yes"/>
      <point x="352" y="672" type="line"/>
      <point x="352" y="750" type="line"/>
      <point x="315" y="750" type="line"/>
      <point x="185" y="747"/>
      <point x="80" y="650"/>
      <point x="80" y="515" type="curve" smooth="yes"/>
      <point x="80" y="386"/>
      <point x="185" y="279"/>
      <point x="315" y="279" type="curve" smooth="yes"/>
      <point x="799" y="279" type="line" smooth="yes"/>
      <point x="829" y="279"/>
      <point x="859" y="281"/>
      <point x="889" y="282" type="curve"/>
      <point x="809" y="209"/>
      <point x="732" y="131"/>
      <point x="655" y="55" type="curve"/>
      <point x="710" y="0" type="line"/>
    </contour>
  </outline>
</glyph>
<glyph name="arrowuprighttip" format="2">
  <advance width="954"/>
  <unicode hex="21B1"/>
  <outline>
    <contour>
      <point x="871" y="539" type="line"/>
      <point x="660" y="750" type="line"/>
      <point x="660" y="577" type="line"/>
      <point x="84" y="577" type="line"/>
      <point x="84" y="0" type="line"/>
      <point x="160" y="0" type="line"/>
      <point x="160" y="501" type="line"/>
      <point x="660" y="501" type="line"/>
      <point x="660" y="328" type="line"/>
    </contour>
  </outline>
</glyph>
<glyph name="arrowrightdowntip" format="2">
  <advance width="954"/>
  <unicode hex="21B3"/>
  <outline>
    <contour>
      <point x="871" y="318" type="line"/>
      <point x="660" y="529" type="line"/>
      <point x="660" y="356" type="line"/>
      <point x="160" y="356" type="line"/>
      <point x="160" y="728" type="line"/>
      <point x="84" y="728" type="line"/>
      <point x="84" y="280" type="line"/>
      <point x="660" y="280" type="line"/>
      <point x="660" y="107" type="line"/>
    </contour>
  </outline>
</glyph>
<glyph name="carriagereturn" format="2">
  <advance width="954"/>
  <unicode hex="21B5"/>
  <outline>
    <contour>
      <point x="294" y="280" type="line"/>
      <point x="870" y="280" type="line"/>
      <point x="870" y="728" type="line"/>
      <point x="793" y="728" type="line"/>
      <point x="793" y="356" type="line"/>
      <point x="294" y="356" type="line"/>
      <point x="294" y="529" type="line"/>
      <point x="83" y="318" type="line"/>
      <point x="294" y="107" type="line"/>
    </contour>
  </outline>
</glyph>
<glyph name="arrowclockwiseopencircle" format="2">
  <advance width="922"/>
  <unicode hex="21BB"/>
  <outline>
    <contour>
      <point x="462" y="0" type="curve" smooth="yes"/>
      <point x="663" y="0"/>
      <point x="825" y="162"/>
      <point x="825" y="363" type="curve"/>
      <point x="747" y="363" type="line"/>
      <point x="747" y="206"/>
      <point x="619" y="78"/>
      <point x="462" y="78" type="curve" smooth="yes"/>
      <point x="305" y="78"/>
      <point x="176" y="205"/>
      <point x="176" y="363" type="curve" smooth="yes"/>
      <point x="176" y="512"/>
      <point x="289" y="636"/>
      <point x="438" y="648" type="curve"/>
      <point x="438" y="470" type="line"/>
      <point x="649" y="681" type="line"/>
      <point x="438" y="892" type="line"/>
      <point x="438" y="727" type="line"/>
      <point x="246" y="713"/>
      <point x="98" y="556"/>
      <point x="98" y="363" type="curve" smooth="yes"/>
      <point x="98" y="161"/>
      <point x="261" y="0"/>
    </contour>
  </outline>
</glyph>
<glyph name="arrowdblright" format="2">
  <advance width="922"/>
  <unicode hex="21D2"/>
  <outline>
    <contour>
      <point x="840" y="318" type="line"/>
      <point x="522" y="637" type="line"/>
      <point x="468" y="582" type="line"/>
      <point x="608" y="441" type="line"/>
      <point x="109" y="441" type="line"/>
      <point x="109" y="363" type="line"/>
      <point x="687" y="363" type="line"/>
      <point x="731" y="318" type="line"/>
      <point x="686" y="272" type="line"/>
      <point x="109" y="272" type="line"/>
      <point x="109" y="194" type="line"/>
      <point x="608" y="194" type="line"/>
      <point x="468" y="54" type="line"/>
      <point x="522" y="0" type="line"/>
    </contour>
  </outline>
</glyph>
<glyph name="arrowdblboth" format="2">
  <advance width="1309"/>
  <unicode hex="21D4"/>
  <outline>
    <contour>
      <point x="1227" y="318" type="line"/>
      <point x="908" y="637" type="line"/>
      <point x="854" y="582" type="line"/>
      <point x="995" y="441" type="line"/>
      <point x="315" y="441" type="line"/>
      <point x="456" y="582" type="line"/>
      <point x="401" y="637" type="line"/>
      <point x="83" y="318" type="line"/>
      <point x="401" y="0" type="line"/>
      <point x="456" y="54" type="line"/>
      <point x="315" y="194" type="line"/>
      <point x="994" y="194" type="line"/>
      <point x="854" y="54" type="line"/>
      <point x="908" y="0" type="line"/>
    </contour>
    <contour>
      <point x="191" y="318" type="line"/>
      <point x="236" y="363" type="line"/>
      <point x="1073" y="363" type="line"/>
      <point x="1118" y="318" type="line"/>
      <point x="1072" y="272" type="line"/>
      <point x="237" y="272" type="line"/>
    </contour>
  </outline>
</glyph>
<glyph name="dblstrokearrowup" format="2">
  <advance width="572"/>
  <unicode hex="21DE"/>
  <outline>
    <contour>
      <point x="248" y="546" type="line"/>
      <point x="248" y="409" type="line"/>
      <point x="126" y="409" type="line"/>
      <point x="126" y="338" type="line"/>
      <point x="248" y="338" type="line"/>
      <point x="248" y="252" type="line"/>
      <point x="126" y="252" type="line"/>
      <point x="126" y="181" type="line"/>
      <point x="248" y="181" type="line"/>
      <point x="248" y="0" type="line"/>
      <point x="324" y="0" type="line"/>
      <point x="324" y="181" type="line"/>
      <point x="446" y="181" type="line"/>
      <point x="446" y="252" type="line"/>
      <point x="324" y="252" type="line"/>
      <point x="324" y="338" type="line"/>
      <point x="446" y="338" type="line"/>
      <point x="446" y="409" type="line"/>
      <point x="324" y="409" type="line"/>
      <point x="324" y="546" type="line"/>
      <point x="497" y="546" type="line"/>
      <point x="286" y="757" type="line"/>
      <point x="75" y="546" type="line"/>
    </contour>
  </outline>
</glyph>
<glyph name="whitearrowup" format="2">
  <advance width="991"/>
  <unicode hex="21E7"/>
  <outline>
    <contour>
      <point x="291" y="363" type="line"/>
      <point x="291" y="0" type="line"/>
      <point x="700" y="0" type="line"/>
      <point x="700" y="363" type="line"/>
      <point x="916" y="363" type="line"/>
      <point x="496" y="784" type="line"/>
      <point x="75" y="363" type="line"/>
    </contour>
    <contour>
      <point x="496" y="688" type="line"/>
      <point x="757" y="428" type="line"/>
      <point x="629" y="428" type="line"/>
      <point x="629" y="63" type="line"/>
      <point x="362" y="63" type="line"/>
      <point x="362" y="428" type="line"/>
      <point x="234" y="428" type="line"/>
    </contour>
  </outline>
</glyph>
<glyph name="whitearrowupfrombar" format="2">
  <advance width="991"/>
  <unicode hex="21EA"/>
  <outline>
    <contour>
      <point x="700" y="149" type="line"/>
      <point x="700" y="363" type="line"/>
      <point x="916" y="363" type="line"/>
      <point x="496" y="784" type="line"/>
      <point x="75" y="363" type="line"/>
      <point x="291" y="363" type="line"/>
      <point x="291" y="149" type="line"/>
    </contour>
    <contour>
      <point x="362" y="428" type="line"/>
      <point x="234" y="428" type="line"/>
      <point x="496" y="688" type="line"/>
      <point x="757" y="428" type="line"/>
      <point x="629" y="428" type="line"/>
      <point x="629" y="213" type="line"/>
      <point x="362" y="213" type="line"/>
    </contour>
    <contour>
      <point x="700" y="-152" type="line"/>
      <point x="700" y="63" type="line"/>
      <point x="291" y="63" type="line"/>
      <point x="291" y="-152" type="line"/>
    </contour>
    <contour>
      <point x="362" y="0" type="line"/>
      <point x="629" y="0" type="line"/>
      <point x="629" y="-88" type="line"/>
      <point x="362" y="-88" type="line"/>
    </contour>
  </outline>
</glyph>
<glyph name="Euro.tf" format="2">
  <advance width="700"/>
  <anchor x="444" y="0" name="bottom"/>
  <anchor x="444" y="687" name="top"/>
  <outline>
    <contour>
      <point x="510" y="236" type="line"/>
      <point x="510" y="303" type="line"/>
      <point x="14" y="303" type="line"/>
      <point x="14" y="236" type="line"/>
    </contour>
    <contour>
      <point x="510" y="403" type="line"/>
      <point x="510" y="470" type="line"/>
      <point x="14" y="470" type="line"/>
      <point x="14" y="403" type="line"/>
    </contour>
    <contour>
      <point x="444" y="-12" type="curve" smooth="yes"/>
      <point x="539" y="-12"/>
      <point x="627" y="29"/>
      <point x="691" y="93" type="curve"/>
      <point x="638" y="147" type="line"/>
      <point x="588" y="94"/>
      <point x="519" y="60"/>
      <point x="444" y="60" type="curve" smooth="yes"/>
      <point x="296" y="60"/>
      <point x="171" y="190"/>
      <point x="171" y="344" type="curve" smooth="yes"/>
      <point x="171" y="497"/>
      <point x="296" y="627"/>
      <point x="444" y="627" type="curve" smooth="yes"/>
      <point x="519" y="627"/>
      <point x="588" y="593"/>
      <point x="638" y="540" type="curve"/>
      <point x="691" y="594" type="line"/>
      <point x="627" y="659"/>
      <point x="539" y="699"/>
      <point x="444" y="699" type="curve" smooth="yes"/>
      <point x="254" y="699"/>
      <point x="92" y="537"/>
      <point x="92" y="344" type="curve" smooth="yes"/>
      <point x="92" y="151"/>
      <point x="254" y="-12"/>
    </contour>
  </outline>
</glyph>
<glyph name="ascender" format="2">
  <advance width="249"/>
  <anchor x="151" y="126" name="k_arms"/>
  <anchor x="87" y="259" name="loop_left"/>
  <anchor x="162" y="259" name="loop_right"/>
  <anchor x="162" y="329" name="shoulder"/>
  <outline>
    <contour>
      <point x="162" y="0" type="line"/>
      <point x="162" y="699" type="line"/>
      <point x="87" y="699" type="line"/>
      <point x="87" y="0" type="line"/>
    </contour>
  </outline>
</glyph>
<glyph name="breveacute.case" format="2">
  <advance width="755"/>
  <outline>
    <contour>
      <point x="521" y="945.5" type="line"/>
      <point x="442" y="958.1" type="line"/>
      <point x="321" y="857.3" type="line"/>
      <point x="379" y="857.3" type="line"/>
    </contour>
    <contour>
      <point x="476" y="834.2" type="line"/>
      <point x="449" y="816"/>
      <point x="415" y="804.8"/>
      <point x="377" y="804.8" type="curve" smooth="yes"/>
      <point x="339" y="804.8"/>
      <point x="305" y="816"/>
      <point x="278" y="834.2" type="curve"/>
      <point x="231" y="801.3" type="line"/>
      <point x="271" y="774"/>
      <point x="321" y="759.3"/>
      <point x="377" y="759.3" type="curve" smooth="yes"/>
      <point x="433" y="759.3"/>
      <point x="483" y="773.3"/>
      <point x="523" y="801.3" type="curve"/>
    </contour>
  </outline>
</glyph>
<glyph name="breveacute" format="2">
  <advance width="573"/>
  <outline>
    <contour>
      <point x="437" y="855" type="line"/>
      <point x="358" y="873" type="line"/>
      <point x="237" y="729" type="line"/>
      <point x="295" y="729" type="line"/>
    </contour>
    <contour>
      <point x="392" y="696" type="line"/>
      <point x="365" y="670"/>
      <point x="331" y="654"/>
      <point x="293" y="654" type="curve" smooth="yes"/>
      <point x="255" y="654"/>
      <point x="221" y="670"/>
      <point x="194" y="696" type="curve"/>
      <point x="147" y="649" type="line"/>
      <point x="187" y="610"/>
      <point x="237" y="589"/>
      <point x="293" y="589" type="curve" smooth="yes"/>
      <point x="349" y="589"/>
      <point x="399" y="609"/>
      <point x="439" y="649" type="curve"/>
    </contour>
  </outline>
</glyph>
<glyph name="brevegrave.case" format="2">
  <advance width="755"/>
  <outline>
    <contour>
      <point x="233" y="945.5" type="line"/>
      <point x="375" y="857.3" type="line"/>
      <point x="433" y="857.3" type="line"/>
      <point x="312" y="958.1" type="line"/>
    </contour>
    <contour>
      <point x="476" y="834.2" type="line"/>
      <point x="449" y="816"/>
      <point x="415" y="804.8"/>
      <point x="377" y="804.8" type="curve" smooth="yes"/>
      <point x="339" y="804.8"/>
      <point x="305" y="816"/>
      <point x="278" y="834.2" type="curve"/>
      <point x="231" y="801.3" type="line"/>
      <point x="271" y="774"/>
      <point x="321" y="759.3"/>
      <point x="377" y="759.3" type="curve" smooth="yes"/>
      <point x="433" y="759.3"/>
      <point x="483" y="773.3"/>
      <point x="523" y="801.3" type="curve"/>
    </contour>
  </outline>
</glyph>
<glyph name="brevegrave" format="2">
  <advance width="573"/>
  <outline>
    <contour>
      <point x="149" y="855" type="line"/>
      <point x="291" y="729" type="line"/>
      <point x="349" y="729" type="line"/>
      <point x="228" y="873" type="line"/>
    </contour>
    <contour>
      <point x="392" y="696" type="line"/>
      <point x="365" y="670"/>
      <point x="331" y="654"/>
      <point x="293" y="654" type="curve" smooth="yes"/>
      <point x="255" y="654"/>
      <point x="221" y="670"/>
      <point x="194" y="696" type="curve"/>
      <point x="147" y="649" type="line"/>
      <point x="187" y="610"/>
      <point x="237" y="589"/>
      <point x="293" y="589" type="curve" smooth="yes"/>
      <point x="349" y="589"/>
      <point x="399" y="609"/>
      <point x="439" y="649" type="curve"/>
    </contour>
  </outline>
</glyph>
<glyph name="brevehoi.case" format="2">
  <advance width="755"/>
  <outline>
    <contour>
      <point x="422" y="905" type="curve" smooth="yes"/>
      <point x="422" y="882"/>
      <point x="377" y="869"/>
      <point x="351" y="862" type="curve"/>
      <point x="351" y="833" type="line"/>
      <point x="395" y="833" type="line"/>
      <point x="395" y="849" type="line"/>
      <point x="435" y="859"/>
      <point x="477" y="876"/>
      <point x="477" y="910" type="curve" smooth="yes"/>
      <point x="477" y="947"/>
      <point x="430" y="958"/>
      <point x="385" y="958" type="curve" smooth="yes"/>
      <point x="354" y="958"/>
      <point x="323" y="953"/>
      <point x="295" y="943" type="curve"/>
      <point x="298" y="913" type="line"/>
      <point x="322" y="920"/>
      <point x="349" y="927"/>
      <point x="376" y="927" type="curve" smooth="yes"/>
      <point x="398" y="927"/>
      <point x="422" y="924"/>
    </contour>
    <contour>
      <point x="476" y="834" type="line"/>
      <point x="449" y="816"/>
      <point x="415" y="805"/>
      <point x="377" y="805" type="curve" smooth="yes"/>
      <point x="339" y="805"/>
      <point x="305" y="816"/>
      <point x="278" y="834" type="curve"/>
      <point x="231" y="801" type="line"/>
      <point x="271" y="774"/>
      <point x="321" y="759"/>
      <point x="377" y="759" type="curve" smooth="yes"/>
      <point x="433" y="759"/>
      <point x="483" y="773"/>
      <point x="523" y="801" type="curve"/>
    </contour>
  </outline>
</glyph>
<glyph name="brevehoi" format="2">
  <advance width="573"/>
  <outline>
    <contour>
      <point x="338" y="797" type="curve" smooth="yes"/>
      <point x="338" y="764"/>
      <point x="293" y="745"/>
      <point x="267" y="736" type="curve"/>
      <point x="267" y="694" type="line"/>
      <point x="311" y="694" type="line"/>
      <point x="311" y="717" type="line"/>
      <point x="351" y="731"/>
      <point x="393" y="756"/>
      <point x="393" y="804" type="curve" smooth="yes"/>
      <point x="393" y="857"/>
      <point x="346" y="873"/>
      <point x="301" y="873" type="curve" smooth="yes"/>
      <point x="270" y="873"/>
      <point x="239" y="865"/>
      <point x="211" y="852" type="curve"/>
      <point x="214" y="808" type="line"/>
      <point x="238" y="819"/>
      <point x="265" y="829"/>
      <point x="292" y="829" type="curve" smooth="yes"/>
      <point x="314" y="829"/>
      <point x="338" y="824"/>
    </contour>
    <contour>
      <point x="392" y="696" type="line"/>
      <point x="365" y="670"/>
      <point x="331" y="654"/>
      <point x="293" y="654" type="curve" smooth="yes"/>
      <point x="255" y="654"/>
      <point x="221" y="670"/>
      <point x="194" y="696" type="curve"/>
      <point x="147" y="649" type="line"/>
      <point x="187" y="610"/>
      <point x="237" y="589"/>
      <point x="293" y="589" type="curve" smooth="yes"/>
      <point x="349" y="589"/>
      <point x="399" y="609"/>
      <point x="439" y="649" type="curve"/>
    </contour>
  </outline>
</glyph>
<glyph name="brevetilde.case" format="2">
  <advance width="755"/>
  <outline>
    <contour>
      <point x="312" y="913" type="curve" smooth="yes"/>
      <point x="342" y="913"/>
      <point x="392" y="866"/>
      <point x="441" y="866" type="curve" smooth="yes"/>
      <point x="508" y="866"/>
      <point x="530" y="910"/>
      <point x="537" y="950" type="curve"/>
      <point x="491" y="955" type="line"/>
      <point x="487" y="935"/>
      <point x="476" y="907"/>
      <point x="441" y="907" type="curve" smooth="yes"/>
      <point x="411" y="907"/>
      <point x="361" y="953"/>
      <point x="312" y="953" type="curve" smooth="yes"/>
      <point x="245" y="953"/>
      <point x="223" y="910"/>
      <point x="216" y="870" type="curve"/>
      <point x="262" y="865" type="line"/>
      <point x="266" y="885"/>
      <point x="277" y="913"/>
    </contour>
    <contour>
      <point x="476" y="834" type="line"/>
      <point x="449" y="816"/>
      <point x="415" y="805"/>
      <point x="377" y="805" type="curve" smooth="yes"/>
      <point x="339" y="805"/>
      <point x="305" y="816"/>
      <point x="278" y="834" type="curve"/>
      <point x="231" y="801" type="line"/>
      <point x="271" y="774"/>
      <point x="321" y="759"/>
      <point x="377" y="759" type="curve" smooth="yes"/>
      <point x="433" y="759"/>
      <point x="483" y="773"/>
      <point x="523" y="801" type="curve"/>
    </contour>
  </outline>
</glyph>
<glyph name="brevetilde" format="2">
  <advance width="573"/>
  <outline>
    <contour>
      <point x="228" y="808" type="curve" smooth="yes"/>
      <point x="258" y="808"/>
      <point x="308" y="742"/>
      <point x="357" y="742" type="curve" smooth="yes"/>
      <point x="424" y="742"/>
      <point x="446" y="804"/>
      <point x="453" y="861" type="curve"/>
      <point x="407" y="868" type="line"/>
      <point x="403" y="840"/>
      <point x="392" y="800"/>
      <point x="357" y="800" type="curve" smooth="yes"/>
      <point x="327" y="800"/>
      <point x="277" y="866"/>
      <point x="228" y="866" type="curve" smooth="yes"/>
      <point x="161" y="866"/>
      <point x="139" y="804"/>
      <point x="132" y="747" type="curve"/>
      <point x="178" y="740" type="line"/>
      <point x="182" y="768"/>
      <point x="193" y="808"/>
    </contour>
    <contour>
      <point x="392" y="696" type="line"/>
      <point x="365" y="670"/>
      <point x="331" y="654"/>
      <point x="293" y="654" type="curve" smooth="yes"/>
      <point x="255" y="654"/>
      <point x="221" y="670"/>
      <point x="194" y="696" type="curve"/>
      <point x="147" y="649" type="line"/>
      <point x="187" y="610"/>
      <point x="237" y="589"/>
      <point x="293" y="589" type="curve" smooth="yes"/>
      <point x="349" y="589"/>
      <point x="399" y="609"/>
      <point x="439" y="649" type="curve"/>
    </contour>
  </outline>
</glyph>
<glyph name="cent.tf.rvrn" format="2">
  <advance width="700"/>
  <anchor x="383" y="0" name="bottom"/>
  <anchor x="373" y="517" name="top"/>
  <outline>
    <contour>
      <point x="432" y="-74" type="line"/>
      <point x="432" y="13" type="line"/>
      <point x="354" y="13" type="line"/>
      <point x="354" y="-74" type="line"/>
    </contour>
    <contour>
      <point x="432" y="504" type="line"/>
      <point x="432" y="589" type="line"/>
      <point x="354" y="589" type="line"/>
      <point x="354" y="504" type="line"/>
    </contour>
    <contour>
      <point x="393" y="-12" type="curve" smooth="yes"/>
      <point x="465" y="-12"/>
      <point x="531" y="18"/>
      <point x="580" y="67" type="curve"/>
      <point x="528" y="118" type="line"/>
      <point x="493" y="79"/>
      <point x="445" y="55"/>
      <point x="393" y="55" type="curve" smooth="yes"/>
      <point x="290" y="55"/>
      <point x="204" y="148"/>
      <point x="204" y="259" type="curve" smooth="yes"/>
      <point x="204" y="369"/>
      <point x="290" y="462"/>
      <point x="393" y="462" type="curve" smooth="yes"/>
      <point x="444" y="462"/>
      <point x="491" y="439"/>
      <point x="525" y="402" type="curve"/>
      <point x="577" y="453" type="line"/>
      <point x="528" y="500"/>
      <point x="463" y="529"/>
      <point x="393" y="529" type="curve" smooth="yes"/>
      <point x="248" y="529"/>
      <point x="125" y="406"/>
      <point x="125" y="259" type="curve" smooth="yes"/>
      <point x="125" y="112"/>
      <point x="248" y="-12"/>
    </contour>
  </outline>
</glyph>
<glyph name="circumflexacute.case" format="2">
  <advance width="755"/>
  <outline>
    <contour>
      <point x="653" y="930.3" type="line"/>
      <point x="574" y="942.9" type="line"/>
      <point x="453" y="842.1" type="line"/>
      <point x="511" y="842.1" type="line"/>
    </contour>
    <contour>
      <point x="514" y="746.2" type="line"/>
      <point x="412" y="842.1" type="line"/>
      <point x="342" y="842.1" type="line"/>
      <point x="242" y="746.2" type="line"/>
      <point x="299" y="746.2" type="line"/>
      <point x="377" y="806.4" type="line"/>
      <point x="456" y="746.2" type="line"/>
    </contour>
  </outline>
</glyph>
<glyph name="circumflexgrave.case" format="2">
  <advance width="755"/>
  <outline>
    <contour>
      <point x="364" y="930" type="line"/>
      <point x="506" y="842" type="line"/>
      <point x="564" y="842" type="line"/>
      <point x="443" y="943" type="line"/>
    </contour>
    <contour>
      <point x="514" y="746" type="line"/>
      <point x="412" y="842" type="line"/>
      <point x="342" y="842" type="line"/>
      <point x="242" y="746" type="line"/>
      <point x="299" y="746" type="line"/>
      <point x="377" y="806" type="line"/>
      <point x="456" y="746" type="line"/>
    </contour>
  </outline>
</glyph>
<glyph name="circumflexgrave" format="2">
  <advance width="573"/>
  <outline>
    <contour>
      <point x="280" y="839" type="line"/>
      <point x="422" y="713" type="line"/>
      <point x="480" y="713" type="line"/>
      <point x="359" y="857" type="line"/>
    </contour>
    <contour>
      <point x="430" y="576" type="line"/>
      <point x="328" y="713" type="line"/>
      <point x="258" y="713" type="line"/>
      <point x="158" y="576" type="line"/>
      <point x="215" y="576" type="line"/>
      <point x="293" y="662" type="line"/>
      <point x="372" y="576" type="line"/>
    </contour>
  </outline>
</glyph>
<glyph name="circumflexhoi.case" format="2">
  <advance width="755"/>
  <outline>
    <contour>
      <point x="444" y="897.4" type="line"/>
      <point x="468" y="905.1"/>
      <point x="495" y="912.1"/>
      <point x="522" y="912.1" type="curve" smooth="yes"/>
      <point x="544" y="912.1"/>
      <point x="568" y="908.6"/>
      <point x="568" y="889.7" type="curve" smooth="yes"/>
      <point x="568" y="866.6"/>
      <point x="523" y="853.3"/>
      <point x="497" y="847" type="curve"/>
      <point x="497" y="817.6" type="line"/>
      <point x="541" y="817.6" type="line"/>
      <point x="541" y="833.7" type="line"/>
      <point x="581" y="843.5"/>
      <point x="623" y="861"/>
      <point x="623" y="894.6" type="curve" smooth="yes"/>
      <point x="623" y="931.7"/>
      <point x="576" y="942.9"/>
      <point x="531" y="942.9" type="curve" smooth="yes"/>
      <point x="500" y="942.9"/>
      <point x="469" y="937.3"/>
      <point x="441" y="928.2" type="curve"/>
    </contour>
    <contour>
      <point x="242" y="746.2" type="line"/>
      <point x="299" y="746.2" type="line"/>
      <point x="377" y="806.4" type="line"/>
      <point x="456" y="746.2" type="line"/>
      <point x="514" y="746.2" type="line"/>
      <point x="412" y="842.1" type="line"/>
      <point x="342" y="842.1" type="line"/>
    </contour>
  </outline>
</glyph>
<glyph name="circumflexhoi" format="2">
  <advance width="573"/>
  <outline>
    <contour>
      <point x="413" y="678" type="line"/>
      <point x="457" y="678" type="line"/>
      <point x="457" y="701" type="line"/>
      <point x="497" y="715"/>
      <point x="539" y="740"/>
      <point x="539" y="788" type="curve" smooth="yes"/>
      <point x="539" y="841"/>
      <point x="492" y="857"/>
      <point x="447" y="857" type="curve" smooth="yes"/>
      <point x="416" y="857"/>
      <point x="385" y="849"/>
      <point x="357" y="836" type="curve"/>
      <point x="360" y="792" type="line"/>
      <point x="384" y="803"/>
      <point x="411" y="813"/>
      <point x="438" y="813" type="curve" smooth="yes"/>
      <point x="460" y="813"/>
      <point x="484" y="808"/>
      <point x="484" y="781" type="curve" smooth="yes"/>
      <point x="484" y="748"/>
      <point x="439" y="729"/>
      <point x="413" y="720" type="curve"/>
    </contour>
    <contour>
      <point x="158" y="576" type="line"/>
      <point x="215" y="576" type="line"/>
      <point x="293" y="662" type="line"/>
      <point x="372" y="576" type="line"/>
      <point x="430" y="576" type="line"/>
      <point x="328" y="713" type="line"/>
      <point x="258" y="713" type="line"/>
    </contour>
  </outline>
</glyph>
<glyph name="circumflextilde.case" format="2">
  <advance width="755"/>
  <outline>
    <contour>
      <point x="312" y="908.6" type="curve" smooth="yes"/>
      <point x="342" y="908.6"/>
      <point x="392" y="862.4"/>
      <point x="441" y="862.4" type="curve" smooth="yes"/>
      <point x="508" y="862.4"/>
      <point x="530" y="905.8"/>
      <point x="537" y="945.7" type="curve"/>
      <point x="491" y="950.6" type="line"/>
      <point x="487" y="931"/>
      <point x="476" y="903"/>
      <point x="441" y="903" type="curve" smooth="yes"/>
      <point x="411" y="903"/>
      <point x="361" y="949.2"/>
      <point x="312" y="949.2" type="curve" smooth="yes"/>
      <point x="245" y="949.2"/>
      <point x="223" y="905.8"/>
      <point x="216" y="865.9" type="curve"/>
      <point x="262" y="861" type="line"/>
      <point x="266" y="880.6"/>
      <point x="277" y="908.6"/>
    </contour>
    <contour>
      <point x="514" y="746.2" type="line"/>
      <point x="412" y="842.1" type="line"/>
      <point x="342" y="842.1" type="line"/>
      <point x="242" y="746.2" type="line"/>
      <point x="299" y="746.2" type="line"/>
      <point x="377" y="806.4" type="line"/>
      <point x="456" y="746.2" type="line"/>
    </contour>
  </outline>
</glyph>
<glyph name="circumflextilde" format="2">
  <advance width="573"/>
  <outline>
    <contour>
      <point x="228" y="808" type="curve" smooth="yes"/>
      <point x="258" y="808"/>
      <point x="308" y="742"/>
      <point x="357" y="742" type="curve" smooth="yes"/>
      <point x="424" y="742"/>
      <point x="446" y="804"/>
      <point x="453" y="861" type="curve"/>
      <point x="407" y="868" type="line"/>
      <point x="403" y="840"/>
      <point x="392" y="800"/>
      <point x="357" y="800" type="curve" smooth="yes"/>
      <point x="327" y="800"/>
      <point x="277" y="866"/>
      <point x="228" y="866" type="curve" smooth="yes"/>
      <point x="161" y="866"/>
      <point x="139" y="804"/>
      <point x="132" y="747" type="curve"/>
      <point x="178" y="740" type="line"/>
      <point x="182" y="768"/>
      <point x="193" y="808"/>
    </contour>
    <contour>
      <point x="430" y="576" type="line"/>
      <point x="328" y="713" type="line"/>
      <point x="258" y="713" type="line"/>
      <point x="158" y="576" type="line"/>
      <point x="215" y="576" type="line"/>
      <point x="293" y="662" type="line"/>
      <point x="372" y="576" type="line"/>
    </contour>
  </outline>
</glyph>
<glyph name="colon.tf" format="2">
  <advance width="315"/>
  <outline>
    <contour>
      <point x="158" y="403" type="curve" smooth="yes"/>
      <point x="187" y="403"/>
      <point x="211" y="428"/>
      <point x="211" y="458" type="curve" smooth="yes"/>
      <point x="211" y="486"/>
      <point x="187" y="511"/>
      <point x="158" y="511" type="curve" smooth="yes"/>
      <point x="127" y="511"/>
      <point x="103" y="486"/>
      <point x="103" y="458" type="curve" smooth="yes"/>
      <point x="103" y="428"/>
      <point x="127" y="403"/>
    </contour>
    <contour>
      <point x="158" y="-12" type="curve" smooth="yes"/>
      <point x="187" y="-12"/>
      <point x="211" y="13"/>
      <point x="211" y="43" type="curve" smooth="yes"/>
      <point x="211" y="71"/>
      <point x="187" y="96"/>
      <point x="158" y="96" type="curve" smooth="yes"/>
      <point x="127" y="96"/>
      <point x="103" y="71"/>
      <point x="103" y="43" type="curve" smooth="yes"/>
      <point x="103" y="13"/>
      <point x="127" y="-12"/>
    </contour>
  </outline>
</glyph>
<glyph name="comma.tf" format="2">
  <advance width="315"/>
  <outline>
    <contour>
      <point x="138" y="-133" type="line"/>
      <point x="198" y="-58"/>
      <point x="215" y="-24"/>
      <point x="215" y="16" type="curve" smooth="yes"/>
      <point x="215" y="62"/>
      <point x="192" y="96"/>
      <point x="154" y="96" type="curve" smooth="yes"/>
      <point x="122" y="96"/>
      <point x="99" y="71"/>
      <point x="99" y="43" type="curve" smooth="yes"/>
      <point x="99" y="13"/>
      <point x="123" y="-12"/>
      <point x="153" y="-12" type="curve"/>
      <point x="145" y="-43"/>
      <point x="128" y="-74"/>
      <point x="101" y="-105" type="curve"/>
    </contour>
  </outline>
</glyph>
<glyph name="divide.tf" format="2">
  <advance width="700"/>
  <outline>
    <contour>
      <point x="578" y="297" type="line"/>
      <point x="578" y="371" type="line"/>
      <point x="119" y="371" type="line"/>
      <point x="119" y="297" type="line"/>
    </contour>
    <contour>
      <point x="350" y="118" type="curve" smooth="yes"/>
      <point x="379" y="118"/>
      <point x="403" y="143"/>
      <point x="403" y="173" type="curve" smooth="yes"/>
      <point x="403" y="201"/>
      <point x="379" y="226"/>
      <point x="350" y="226" type="curve" smooth="yes"/>
      <point x="319" y="226"/>
      <point x="295" y="201"/>
      <point x="295" y="173" type="curve" smooth="yes"/>
      <point x="295" y="143"/>
      <point x="319" y="118"/>
    </contour>
    <contour>
      <point x="350" y="442" type="curve" smooth="yes"/>
      <point x="379" y="442"/>
      <point x="403" y="467"/>
      <point x="403" y="497" type="curve" smooth="yes"/>
      <point x="403" y="525"/>
      <point x="379" y="550"/>
      <point x="350" y="550" type="curve" smooth="yes"/>
      <point x="319" y="550"/>
      <point x="295" y="525"/>
      <point x="295" y="497" type="curve" smooth="yes"/>
      <point x="295" y="467"/>
      <point x="319" y="442"/>
    </contour>
  </outline>
</glyph>
<glyph name="dollar.tf" format="2">
  <advance width="700"/>
  <anchor x="354" y="-0" name="bottom"/>
  <anchor x="353" y="687" name="top"/>
  <outline>
    <contour>
      <point x="397" y="-74" type="line"/>
      <point x="397" y="759" type="line"/>
      <point x="319" y="759" type="line"/>
      <point x="319" y="-74" type="line"/>
    </contour>
    <contour>
      <point x="363" y="-11" type="curve" smooth="yes"/>
      <point x="523" y="-11"/>
      <point x="605" y="78"/>
      <point x="605" y="187" type="curve" smooth="yes"/>
      <point x="605" y="308"/>
      <point x="511" y="355"/>
      <point x="380" y="386" type="curve" smooth="yes"/>
      <point x="263" y="414"/>
      <point x="195" y="439"/>
      <point x="195" y="510" type="curve" smooth="yes"/>
      <point x="195" y="573"/>
      <point x="257" y="629"/>
      <point x="342" y="629" type="curve" smooth="yes"/>
      <point x="414" y="629"/>
      <point x="482" y="596"/>
      <point x="539" y="541" type="curve"/>
      <point x="587" y="602" type="line"/>
      <point x="524" y="660"/>
      <point x="448" y="700"/>
      <point x="346" y="700" type="curve" smooth="yes"/>
      <point x="214" y="700"/>
      <point x="116" y="614"/>
      <point x="116" y="504" type="curve" smooth="yes"/>
      <point x="116" y="385"/>
      <point x="203" y="342"/>
      <point x="341" y="310" type="curve" smooth="yes"/>
      <point x="461" y="282"/>
      <point x="526" y="253"/>
      <point x="526" y="180" type="curve" smooth="yes"/>
      <point x="526" y="118"/>
      <point x="472" y="60"/>
      <point x="366" y="60" type="curve" smooth="yes"/>
      <point x="270" y="60"/>
      <point x="199" y="101"/>
      <point x="141" y="159" type="curve"/>
      <point x="92" y="98" type="line"/>
      <point x="161" y="30"/>
      <point x="250" y="-11"/>
    </contour>
  </outline>
</glyph>
<glyph name="dong.tf" format="2">
  <advance width="700"/>
  <outline>
    <contour>
      <point x="576" y="-75" type="line"/>
      <point x="90" y="-75" type="line"/>
      <point x="90" y="-142" type="line"/>
      <point x="576" y="-142" type="line"/>
    </contour>
    <contour>
      <point x="576" y="699" type="line"/>
      <point x="501" y="699" type="line"/>
      <point x="501" y="635" type="line"/>
      <point x="331" y="635" type="line"/>
      <point x="331" y="585" type="line"/>
      <point x="501" y="585" type="line"/>
      <point x="501" y="420" type="line"/>
      <point x="459" y="492"/>
      <point x="396" y="529"/>
      <point x="313" y="529" type="curve" smooth="yes"/>
      <point x="161" y="529"/>
      <point x="75" y="401"/>
      <point x="75" y="259" type="curve" smooth="yes"/>
      <point x="75" y="116"/>
      <point x="160" y="-12"/>
      <point x="313" y="-12" type="curve" smooth="yes"/>
      <point x="396" y="-12"/>
      <point x="459" y="25"/>
      <point x="501" y="97" type="curve"/>
      <point x="501" y="0" type="line"/>
      <point x="576" y="0" type="line"/>
      <point x="576" y="585" type="line"/>
      <point x="641" y="585" type="line"/>
      <point x="641" y="635" type="line"/>
      <point x="576" y="635" type="line"/>
    </contour>
    <contour>
      <point x="327" y="55" type="curve" smooth="yes"/>
      <point x="214" y="55"/>
      <point x="154" y="155"/>
      <point x="154" y="259" type="curve" smooth="yes"/>
      <point x="154" y="364"/>
      <point x="212" y="462"/>
      <point x="327" y="462" type="curve" smooth="yes"/>
      <point x="441" y="462"/>
      <point x="501" y="364"/>
      <point x="501" y="259" type="curve" smooth="yes"/>
      <point x="501" y="154"/>
      <point x="442" y="55"/>
    </contour>
  </outline>
</glyph>
<glyph name="eight.tf" format="2">
  <advance width="700"/>
  <outline>
    <contour>
      <point x="350" y="-12" type="curve" smooth="yes"/>
      <point x="491" y="-12"/>
      <point x="601" y="63"/>
      <point x="601" y="180" type="curve" smooth="yes"/>
      <point x="601" y="266"/>
      <point x="533" y="327"/>
      <point x="450" y="355" type="curve"/>
      <point x="521" y="381"/>
      <point x="584" y="432"/>
      <point x="584" y="516" type="curve" smooth="yes"/>
      <point x="584" y="629"/>
      <point x="473" y="699"/>
      <point x="350" y="699" type="curve" smooth="yes"/>
      <point x="231" y="699"/>
      <point x="117" y="631"/>
      <point x="117" y="517" type="curve" smooth="yes"/>
      <point x="117" y="438"/>
      <point x="173" y="385"/>
      <point x="251" y="355" type="curve"/>
      <point x="167" y="328"/>
      <point x="99" y="266"/>
      <point x="99" y="180" type="curve" smooth="yes"/>
      <point x="99" y="64"/>
      <point x="208" y="-12"/>
    </contour>
    <contour>
      <point x="350" y="59" type="curve" smooth="yes"/>
      <point x="255" y="59"/>
      <point x="178" y="110"/>
      <point x="178" y="185" type="curve" smooth="yes"/>
      <point x="178" y="268"/>
      <point x="279" y="316"/>
      <point x="350" y="318" type="curve"/>
      <point x="422" y="316"/>
      <point x="522" y="268"/>
      <point x="522" y="185" type="curve" smooth="yes"/>
      <point x="522" y="110"/>
      <point x="445" y="59"/>
    </contour>
    <contour>
      <point x="350" y="386" type="curve"/>
      <point x="285" y="390"/>
      <point x="196" y="429"/>
      <point x="196" y="509" type="curve" smooth="yes"/>
      <point x="196" y="578"/>
      <point x="264" y="628"/>
      <point x="350" y="628" type="curve" smooth="yes"/>
      <point x="436" y="628"/>
      <point x="505" y="578"/>
      <point x="505" y="509" type="curve" smooth="yes"/>
      <point x="505" y="431"/>
      <point x="417" y="390"/>
    </contour>
  </outline>
</glyph>
<glyph name="equal.tf" format="2">
  <advance width="700"/>
  <outline>
    <contour>
      <point x="579" y="407" type="line"/>
      <point x="579" y="481" type="line"/>
      <point x="120" y="481" type="line"/>
      <point x="120" y="407" type="line"/>
    </contour>
    <contour>
      <point x="579" y="187" type="line"/>
      <point x="579" y="261" type="line"/>
      <point x="120" y="261" type="line"/>
      <point x="120" y="187" type="line"/>
    </contour>
  </outline>
</glyph>
<glyph name="five.tf" format="2">
  <advance width="700"/>
  <outline>
    <contour>
      <point x="346" y="-12" type="curve" smooth="yes"/>
      <point x="487" y="-12"/>
      <point x="590" y="78"/>
      <point x="590" y="214" type="curve" smooth="yes"/>
      <point x="590" y="350"/>
      <point x="487" y="428"/>
      <point x="363" y="428" type="curve" smooth="yes"/>
      <point x="300" y="428"/>
      <point x="253" y="407"/>
      <point x="216" y="382" type="curve"/>
      <point x="223" y="613" type="line"/>
      <point x="553" y="613" type="line"/>
      <point x="553" y="687" type="line"/>
      <point x="147" y="687" type="line"/>
      <point x="137" y="334" type="line"/>
      <point x="194" y="306" type="line"/>
      <point x="237" y="338"/>
      <point x="288" y="359"/>
      <point x="347" y="359" type="curve" smooth="yes"/>
      <point x="443" y="359"/>
      <point x="511" y="299"/>
      <point x="511" y="211" type="curve" smooth="yes"/>
      <point x="511" y="124"/>
      <point x="444" y="58"/>
      <point x="349" y="58" type="curve" smooth="yes"/>
      <point x="273" y="58"/>
      <point x="208" y="96"/>
      <point x="155" y="154" type="curve"/>
      <point x="104" y="97" type="line"/>
      <point x="160" y="33"/>
      <point x="240" y="-12"/>
    </contour>
  </outline>
</glyph>
<glyph name="four.tf" format="2">
  <advance width="700"/>
  <outline>
    <contour>
      <point x="513" y="0" type="line"/>
      <point x="513" y="167" type="line"/>
      <point x="616" y="167" type="line"/>
      <point x="616" y="238" type="line"/>
      <point x="513" y="238" type="line"/>
      <point x="513" y="687" type="line"/>
      <point x="423" y="687" type="line"/>
      <point x="82" y="232" type="line"/>
      <point x="92" y="167" type="line"/>
      <point x="435" y="167" type="line"/>
      <point x="435" y="0" type="line"/>
    </contour>
    <contour>
      <point x="435" y="593" type="line"/>
      <point x="435" y="238" type="line"/>
      <point x="171" y="238" type="line"/>
    </contour>
  </outline>
</glyph>
<glyph name="greater.tf" format="2">
  <advance width="700"/>
  <outline>
    <contour>
      <point x="581" y="314" type="line"/>
      <point x="581" y="373" type="line"/>
      <point x="126" y="599" type="line"/>
      <point x="126" y="529" type="line"/>
      <point x="507" y="344" type="line"/>
      <point x="126" y="159" type="line"/>
      <point x="126" y="88" type="line"/>
    </contour>
  </outline>
</glyph>
<glyph name="hyphen.tf" format="2">
  <advance width="420"/>
  <outline>
    <contour>
      <point x="339" y="235" type="line"/>
      <point x="339" y="308" type="line"/>
      <point x="80" y="308" type="line"/>
      <point x="80" y="235" type="line"/>
    </contour>
  </outline>
</glyph>
<glyph name="less.tf" format="2">
  <advance width="700"/>
  <outline>
    <contour>
      <point x="574" y="159" type="line"/>
      <point x="193" y="344" type="line"/>
      <point x="574" y="529" type="line"/>
      <point x="574" y="599" type="line"/>
      <point x="119" y="373" type="line"/>
      <point x="119" y="314" type="line"/>
      <point x="574" y="88" type="line"/>
    </contour>
  </outline>
</glyph>
<glyph name="minus.tf" format="2">
  <advance width="700"/>
  <outline>
    <contour>
      <point x="579" y="297" type="line"/>
      <point x="579" y="371" type="line"/>
      <point x="120" y="371" type="line"/>
      <point x="120" y="297" type="line"/>
    </contour>
  </outline>
</glyph>
<glyph name="multiply.tf" format="2">
  <advance width="700"/>
  <outline>
    <contour>
      <point x="538" y="470" type="line"/>
      <point x="486" y="523" type="line"/>
      <point x="161" y="198" type="line"/>
      <point x="214" y="146" type="line"/>
    </contour>
    <contour>
      <point x="538" y="199" type="line"/>
      <point x="214" y="523" type="line"/>
      <point x="161" y="470" type="line"/>
      <point x="485" y="146" type="line"/>
    </contour>
  </outline>
</glyph>
<glyph name="nine.tf" format="2">
  <advance width="700"/>
  <outline>
    <contour>
      <point x="338" y="699" type="curve" smooth="yes"/>
      <point x="195" y="699"/>
      <point x="96" y="599"/>
      <point x="96" y="472" type="curve" smooth="yes"/>
      <point x="96" y="336"/>
      <point x="201" y="258"/>
      <point x="326" y="258" type="curve" smooth="yes"/>
      <point x="415" y="258"/>
      <point x="492" y="305"/>
      <point x="532" y="384" type="curve"/>
      <point x="515" y="484" type="line"/>
      <point x="511" y="391"/>
      <point x="438" y="325"/>
      <point x="340" y="325" type="curve" smooth="yes"/>
      <point x="248" y="325"/>
      <point x="175" y="382"/>
      <point x="175" y="476" type="curve" smooth="yes"/>
      <point x="175" y="552"/>
      <point x="236" y="632"/>
      <point x="339" y="632" type="curve" smooth="yes"/>
      <point x="464" y="632"/>
      <point x="520" y="506"/>
      <point x="520" y="354" type="curve" smooth="yes"/>
      <point x="520" y="189"/>
      <point x="433" y="59"/>
      <point x="323" y="59" type="curve" smooth="yes"/>
      <point x="257" y="59"/>
      <point x="212" y="89"/>
      <point x="169" y="131" type="curve"/>
      <point x="126" y="70" type="line"/>
      <point x="177" y="21"/>
      <point x="237" y="-12"/>
      <point x="321" y="-12" type="curve" smooth="yes"/>
      <point x="477" y="-12"/>
      <point x="599" y="149"/>
      <point x="599" y="354" type="curve" smooth="yes"/>
      <point x="599" y="548"/>
      <point x="524" y="699"/>
    </contour>
  </outline>
</glyph>
<glyph name="one.tf" format="2">
  <advance width="700"/>
  <outline>
    <contour>
      <point x="450" y="0" type="line"/>
      <point x="450" y="687" type="line"/>
      <point x="387" y="687" type="line"/>
      <point x="218" y="572" type="line"/>
      <point x="252" y="514" type="line"/>
      <point x="372" y="592" type="line"/>
      <point x="372" y="0" type="line"/>
    </contour>
  </outline>
</glyph>
<glyph name="period.tf" format="2">
  <advance width="315"/>
  <outline>
    <contour>
      <point x="158" y="-12" type="curve" smooth="yes"/>
      <point x="187" y="-12"/>
      <point x="211" y="13"/>
      <point x="211" y="43" type="curve" smooth="yes"/>
      <point x="211" y="71"/>
      <point x="187" y="96"/>
      <point x="158" y="96" type="curve" smooth="yes"/>
      <point x="127" y="96"/>
      <point x="103" y="71"/>
      <point x="103" y="43" type="curve" smooth="yes"/>
      <point x="103" y="13"/>
      <point x="127" y="-12"/>
    </contour>
  </outline>
</glyph>
<glyph name="plus.tf" format="2">
  <advance width="700"/>
  <outline>
    <contour>
      <point x="579" y="297" type="line"/>
      <point x="579" y="371" type="line"/>
      <point x="120" y="371" type="line"/>
      <point x="120" y="297" type="line"/>
    </contour>
    <contour>
      <point x="387" y="105" type="line"/>
      <point x="387" y="564" type="line"/>
      <point x="312" y="564" type="line"/>
      <point x="312" y="105" type="line"/>
    </contour>
  </outline>
</glyph>
<glyph name="ringacute.case" format="2">
  <advance width="282"/>
  <anchor x="141" y="539" name="_top"/>
  <anchor x="141" y="800" name="top"/>
  <outline>
    <contour>
      <point x="141" y="589" type="curve" smooth="yes"/>
      <point x="198" y="589"/>
      <point x="244" y="622"/>
      <point x="244" y="661" type="curve" smooth="yes"/>
      <point x="244" y="701"/>
      <point x="198" y="734"/>
      <point x="141" y="734" type="curve" smooth="yes"/>
      <point x="84" y="734"/>
      <point x="38" y="701"/>
      <point x="38" y="661" type="curve" smooth="yes"/>
      <point x="38" y="622"/>
      <point x="84" y="589"/>
    </contour>
    <contour>
      <point x="141" y="620" type="curve" smooth="yes"/>
      <point x="109" y="620"/>
      <point x="82" y="639"/>
      <point x="82" y="661" type="curve" smooth="yes"/>
      <point x="82" y="684"/>
      <point x="109" y="703"/>
      <point x="141" y="703" type="curve" smooth="yes"/>
      <point x="173" y="703"/>
      <point x="200" y="684"/>
      <point x="200" y="661" type="curve" smooth="yes"/>
      <point x="200" y="639"/>
      <point x="173" y="620"/>
    </contour>
    <contour>
      <point x="169" y="711" type="line"/>
      <point x="311" y="799" type="line"/>
      <point x="232" y="812" type="line"/>
      <point x="111" y="711" type="line"/>
    </contour>
  </outline>
</glyph>
<glyph name="semicolon.tf" format="2">
  <advance width="315"/>
  <outline>
    <contour>
      <point x="140" y="-133" type="line"/>
      <point x="200" y="-58"/>
      <point x="217" y="-24"/>
      <point x="217" y="16" type="curve" smooth="yes"/>
      <point x="217" y="62"/>
      <point x="194" y="96"/>
      <point x="156" y="96" type="curve" smooth="yes"/>
      <point x="124" y="96"/>
      <point x="101" y="71"/>
      <point x="101" y="43" type="curve" smooth="yes"/>
      <point x="101" y="13"/>
      <point x="125" y="-12"/>
      <point x="155" y="-12" type="curve"/>
      <point x="147" y="-43"/>
      <point x="130" y="-74"/>
      <point x="103" y="-105" type="curve"/>
    </contour>
    <contour>
      <point x="157" y="403" type="curve" smooth="yes"/>
      <point x="186" y="403"/>
      <point x="210" y="428"/>
      <point x="210" y="458" type="curve" smooth="yes"/>
      <point x="210" y="486"/>
      <point x="186" y="511"/>
      <point x="157" y="511" type="curve" smooth="yes"/>
      <point x="126" y="511"/>
      <point x="102" y="486"/>
      <point x="102" y="458" type="curve" smooth="yes"/>
      <point x="102" y="428"/>
      <point x="126" y="403"/>
    </contour>
  </outline>
</glyph>
<glyph name="seven.tf" format="2">
  <advance width="700"/>
  <outline>
    <contour>
      <point x="286" y="0" type="line"/>
      <point x="582" y="628" type="line"/>
      <point x="582" y="687" type="line"/>
      <point x="117" y="687" type="line"/>
      <point x="117" y="613" type="line"/>
      <point x="489" y="613" type="line"/>
      <point x="196" y="0" type="line"/>
    </contour>
  </outline>
</glyph>
<glyph name="six.tf" format="2">
  <advance width="700"/>
  <outline>
    <contour>
      <point x="361" y="-12" type="curve" smooth="yes"/>
      <point x="504" y="-12"/>
      <point x="603" y="88"/>
      <point x="603" y="215" type="curve" smooth="yes"/>
      <point x="603" y="351"/>
      <point x="498" y="429"/>
      <point x="373" y="429" type="curve" smooth="yes"/>
      <point x="284" y="429"/>
      <point x="207" y="382"/>
      <point x="167" y="303" type="curve"/>
      <point x="184" y="203" type="line"/>
      <point x="188" y="296"/>
      <point x="261" y="362"/>
      <point x="359" y="362" type="curve" smooth="yes"/>
      <point x="451" y="362"/>
      <point x="524" y="305"/>
      <point x="524" y="211" type="curve" smooth="yes"/>
      <point x="524" y="135"/>
      <point x="463" y="55"/>
      <point x="360" y="55" type="curve" smooth="yes"/>
      <point x="235" y="55"/>
      <point x="179" y="181"/>
      <point x="179" y="333" type="curve" smooth="yes"/>
      <point x="179" y="498"/>
      <point x="266" y="628"/>
      <point x="376" y="628" type="curve" smooth="yes"/>
      <point x="442" y="628"/>
      <point x="487" y="598"/>
      <point x="530" y="556" type="curve"/>
      <point x="573" y="617" type="line"/>
      <point x="522" y="666"/>
      <point x="462" y="699"/>
      <point x="378" y="699" type="curve" smooth="yes"/>
      <point x="222" y="699"/>
      <point x="100" y="538"/>
      <point x="100" y="333" type="curve" smooth="yes"/>
      <point x="100" y="139"/>
      <point x="175" y="-12"/>
    </contour>
  </outline>
</glyph>
<glyph name="sterling.tf" format="2">
  <advance width="700"/>
  <outline>
    <contour>
      <point x="610" y="0" type="line"/>
      <point x="610" y="74" type="line"/>
      <point x="212" y="74" type="line"/>
      <point x="235" y="50" type="line"/>
      <point x="235" y="463" type="line" smooth="yes"/>
      <point x="235" y="560"/>
      <point x="293" y="628"/>
      <point x="374" y="628" type="curve" smooth="yes"/>
      <point x="447" y="628"/>
      <point x="511" y="587"/>
      <point x="528" y="529" type="curve"/>
      <point x="585" y="585" type="line"/>
      <point x="553" y="652"/>
      <point x="466" y="699"/>
      <point x="374" y="699" type="curve" smooth="yes"/>
      <point x="247" y="699"/>
      <point x="157" y="601"/>
      <point x="157" y="463" type="curve" smooth="yes"/>
      <point x="157" y="74" type="line"/>
      <point x="92" y="38" type="line"/>
      <point x="92" y="0" type="line"/>
    </contour>
    <contour>
      <point x="437" y="261" type="line"/>
      <point x="437" y="328" type="line"/>
      <point x="95" y="328" type="line"/>
      <point x="95" y="261" type="line"/>
    </contour>
  </outline>
</glyph>
<glyph name="thorn_stem" format="2">
  <advance width="251"/>
  <anchor x="163" y="259" name="loop_right"/>
  <outline>
    <contour>
      <point x="163" y="-172" type="line"/>
      <point x="163" y="699" type="line"/>
      <point x="88" y="699" type="line"/>
      <point x="88" y="-172" type="line"/>
    </contour>
  </outline>
</glyph>
<glyph name="three.tf" format="2">
  <advance width="700"/>
  <outline>
    <contour>
      <point x="352" y="-12" type="curve" smooth="yes"/>
      <point x="495" y="-12"/>
      <point x="591" y="71"/>
      <point x="591" y="186" type="curve" smooth="yes"/>
      <point x="591" y="285"/>
      <point x="513" y="336"/>
      <point x="443" y="352" type="curve"/>
      <point x="514" y="373"/>
      <point x="576" y="425"/>
      <point x="576" y="513" type="curve" smooth="yes"/>
      <point x="576" y="623"/>
      <point x="480" y="699"/>
      <point x="349" y="699" type="curve" smooth="yes"/>
      <point x="242" y="699"/>
      <point x="166" y="647"/>
      <point x="114" y="578" type="curve"/>
      <point x="166" y="531" type="line"/>
      <point x="215" y="590"/>
      <point x="269" y="628"/>
      <point x="345" y="628" type="curve" smooth="yes"/>
      <point x="431" y="628"/>
      <point x="497" y="576"/>
      <point x="497" y="504" type="curve" smooth="yes"/>
      <point x="497" y="426"/>
      <point x="428" y="382"/>
      <point x="336" y="383" type="curve" smooth="yes"/>
      <point x="262" y="384" type="line"/>
      <point x="262" y="312" type="line"/>
      <point x="335" y="312" type="line" smooth="yes"/>
      <point x="443" y="312"/>
      <point x="512" y="271"/>
      <point x="512" y="190" type="curve" smooth="yes"/>
      <point x="512" y="112"/>
      <point x="448" y="59"/>
      <point x="352" y="59" type="curve" smooth="yes"/>
      <point x="268" y="59"/>
      <point x="201" y="99"/>
      <point x="156" y="157" type="curve"/>
      <point x="102" y="106" type="line"/>
      <point x="152" y="40"/>
      <point x="239" y="-12"/>
    </contour>
  </outline>
</glyph>
<glyph name="two.tf" format="2">
  <advance width="700"/>
  <outline>
    <contour>
      <point x="584" y="0" type="line"/>
      <point x="584" y="74" type="line"/>
      <point x="235" y="74" type="line"/>
      <point x="415" y="230" type="line" smooth="yes"/>
      <point x="531" y="330"/>
      <point x="577" y="404"/>
      <point x="577" y="497" type="curve" smooth="yes"/>
      <point x="577" y="620"/>
      <point x="477" y="699"/>
      <point x="358" y="699" type="curve" smooth="yes"/>
      <point x="250" y="699"/>
      <point x="173" y="648"/>
      <point x="116" y="567" type="curve"/>
      <point x="171" y="522" type="line"/>
      <point x="218" y="586"/>
      <point x="275" y="629"/>
      <point x="355" y="629" type="curve" smooth="yes"/>
      <point x="428" y="629"/>
      <point x="498" y="580"/>
      <point x="498" y="496" type="curve" smooth="yes"/>
      <point x="498" y="428"/>
      <point x="458" y="362"/>
      <point x="361" y="279" type="curve" smooth="yes"/>
      <point x="110" y="65" type="line"/>
      <point x="110" y="0" type="line"/>
    </contour>
  </outline>
</glyph>
<glyph name="yen.tf" format="2">
  <advance width="700"/>
  <anchor x="350" y="687" name="top"/>
  <outline>
    <contour>
      <point x="598" y="115" type="line"/>
      <point x="598" y="182" type="line"/>
      <point x="102" y="182" type="line"/>
      <point x="102" y="115" type="line"/>
    </contour>
    <contour>
      <point x="598" y="262" type="line"/>
      <point x="598" y="329" type="line"/>
      <point x="102" y="329" type="line"/>
      <point x="102" y="262" type="line"/>
    </contour>
    <contour>
      <point x="391" y="0" type="line"/>
      <point x="391" y="280" type="line"/>
      <point x="667" y="687" type="line"/>
      <point x="573" y="687" type="line"/>
      <point x="350" y="354" type="line"/>
      <point x="129" y="687" type="line"/>
      <point x="32" y="687" type="line"/>
      <point x="309" y="280" type="line"/>
      <point x="309" y="0" type="line"/>
    </contour>
  </outline>
</glyph>
<glyph name="zero.tf" format="2">
  <advance width="700"/>
  <outline>
    <contour>
      <point x="350" y="-12" type="curve" smooth="yes"/>
      <point x="517" y="-12"/>
      <point x="635" y="135"/>
      <point x="635" y="344" type="curve" smooth="yes"/>
      <point x="635" y="552"/>
      <point x="517" y="699"/>
      <point x="350" y="699" type="curve" smooth="yes"/>
      <point x="182" y="699"/>
      <point x="64" y="552"/>
      <point x="64" y="344" type="curve" smooth="yes"/>
      <point x="64" y="135"/>
      <point x="182" y="-12"/>
    </contour>
    <contour>
      <point x="350" y="60" type="curve" smooth="yes"/>
      <point x="229" y="60"/>
      <point x="143" y="178"/>
      <point x="143" y="344" type="curve" smooth="yes"/>
      <point x="143" y="510"/>
      <point x="229" y="627"/>
      <point x="350" y="627" type="curve" smooth="yes"/>
      <point x="471" y="627"/>
      <point x="556" y="510"/>
      <point x="556" y="344" type="curve" smooth="yes"/>
      <point x="556" y="178"/>
      <point x="471" y="60"/>
    </contour>
  </outline>
</glyph>
